<?xml version="1.0" encoding="UTF-8"?>
<!-- Generated by Pixelmator Pro 3.6.5 -->
<svg width="728" height="90" viewBox="0 0 728 90" xmlns="http://www.w3.org/2000/svg">
    <g id="694bcea1-566f-4331-89b6-ca06f2f53648">
        <path id="Path" fill="#ffffff" stroke="none" d="M 180.360794 63.791946 L 180.360794 17.713326 L 194.742386 17.713326 L 194.742386 6.265579 L 154.531448 6.265579 L 154.531448 17.713326 L 168.855515 17.713326 L 168.855515 63.791946 L 180.360794 63.791946 L 180.360794 63.791946 Z M 243.697327 63.791946 L 243.697327 6.208054 L 232.192047 6.208054 L 232.192047 29.218597 L 214.934143 29.218597 L 214.934143 6.208054 L 203.428864 6.208054 L 203.428864 63.791946 L 214.934143 63.791946 L 214.934143 40.781399 L 232.192047 40.781399 L 232.192047 63.791946 L 243.697327 63.791946 L 243.697327 63.791946 Z M 286.439392 63.791946 L 286.439392 63.791946 L 286.439392 52.286671 L 268.146027 52.286671 L 268.146027 40.781399 L 283.332977 40.781399 L 283.332977 29.218597 L 268.146027 29.218597 L 268.146027 17.713326 L 285.461456 17.713326 L 285.461456 6.208054 L 256.640747 6.208054 L 256.640747 63.791946 L 286.439392 63.791946 Z M 341.147003 63.791946 L 341.147003 17.713326 L 355.471039 17.713326 L 355.471039 6.265579 L 315.260101 6.265579 L 315.260101 17.713326 L 329.641693 17.713326 L 329.641693 63.791946 L 341.147003 63.791946 L 341.147003 63.791946 Z M 390.044403 64.597313 L 390.044403 64.597313 C 429.622528 64.597313 429.622528 5.230103 390.044403 5.230103 C 350.408752 5.230103 350.408752 64.597313 390.044403 64.597313 Z M 390.044403 52.689354 L 390.044403 52.689354 C 366.976318 52.689354 366.976318 17.080536 390.044403 17.080536 C 413.054932 17.080536 413.054932 52.689354 390.044403 52.689354 Z M 460.341614 63.791946 L 460.341614 63.791946 L 460.341614 52.286671 L 442.048218 52.286671 L 442.048218 40.781399 L 457.177643 40.781399 L 457.177643 29.218597 L 442.048218 29.218597 L 442.048218 17.713326 L 459.363678 17.713326 L 459.363678 6.208054 L 430.542938 6.208054 L 430.542938 63.791946 L 460.341614 63.791946 Z M 505.499817 32.440075 L 505.499817 32.440075 L 534.665649 65 L 537.714539 65 L 537.714539 6.265579 L 526.151733 6.265579 L 526.151733 38.8255 L 497.043427 5 L 493.994537 5 L 493.994537 63.791946 L 505.499817 63.791946 L 505.499817 32.440075 Z M 592.01947 43.715244 L 592.01947 6.208054 L 580.571716 6.208054 L 580.571716 43.657715 C 580.571716 55.738255 561.87561 55.738255 561.87561 43.657715 L 561.87561 6.208054 L 550.370361 6.208054 L 550.370361 43.715244 C 550.370361 71.097794 592.01947 71.097794 592.01947 43.715244 L 592.01947 43.715244 Z M 646.439392 63.791946 L 646.439392 63.791946 L 633.093262 40.033554 C 650.006042 35.143814 647.992615 6.208054 627.455688 6.208054 L 604.732788 6.208054 L 604.732788 63.791946 L 616.238037 63.791946 L 616.238037 41.816872 L 621.818115 41.816872 L 633.38092 63.791946 Z M 616.238037 17.713326 L 626.420227 17.713326 C 634.186279 17.713326 634.186279 30.599228 626.420227 30.599228 L 616.238037 30.599228 L 616.238037 30.599228 Z M 651.444214 60.110256 C 659.267761 64.1371 666.401062 64.539787 669.622498 64.252151 C 680.437439 63.734417 687.052979 56.371044 687.052979 46.821667 C 687.052979 37.617447 679.286926 32.440075 670.370361 29.161072 C 667.09137 28.010544 664.272583 26.572388 663.927429 23.350906 C 663.697327 20.129433 665.538147 17.138062 669.622498 16.907959 C 671.405823 16.850433 675.030029 16.735374 681.415466 19.324066 L 682.853577 8.221474 C 675.432678 5.63279 671.520874 5.63279 668.52948 5.805367 C 658.922607 6.265579 652.249573 13.686478 652.249573 23.350906 C 652.249573 33.015339 660.303223 37.617447 669.3349 40.89645 C 672.556396 42.046978 675.030029 43.485134 675.260132 46.821667 C 675.605286 49.928089 672.728943 52.3442 669.3349 52.574303 C 666.68866 52.861938 659.497864 52.689354 652.882385 48.02972 L 651.444214 60.110256 L 651.444214 60.110256 Z M 726.516113 63.791946 L 726.516113 63.791946 L 726.516113 52.286671 L 708.222717 52.286671 L 708.222717 40.781399 L 723.352173 40.781399 L 723.352173 29.218597 L 708.222717 29.218597 L 708.222717 17.713326 L 725.538147 17.713326 L 725.538147 6.208054 L 696.717407 6.208054 L 696.717407 63.791946 L 726.516113 63.791946 Z"/>
    </g>
    <g id="3e86c166-1d10-41ad-856d-43e4fad9447f">
        <path id="path1" fill="#ffffff" stroke="none" d="M 119.392281 27.948299 C 90.24675 -8.247047 49.083416 -9.429901 19.062572 28.326813 C 51.472786 11.577599 81.422653 8.904343 119.392281 27.948299 Z"/>
        <path id="path2" fill="#ffffff" stroke="none" d="M 0.870274 44.673859 L 19.086227 87.067352 C 46.007992 100.315323 79.033287 68.543854 117.002914 87.564163 L 136.401718 44.673859 C 102.595741 13.209938 33.375111 15.433701 0.870274 44.673859 Z M 86.461617 59.932678 L 75.200836 59.932678 L 75.200836 71.169792 L 63.254005 71.169792 L 63.254005 59.932678 L 52.016899 59.932678 L 52.016899 47.985847 L 63.254005 47.985847 L 63.254005 36.748734 L 75.200836 36.748734 L 75.200836 47.985847 L 86.461617 47.985847 L 86.461617 59.932678 Z"/>
    </g>
    <g id="4defe6b0-f55d-48dd-95b2-c8edbe310528">
        <path id="path3" fill="#ffffff" stroke="none" d="M 218.531464 84.645493 L 218.531464 84.645493 C 218.531464 84.39652 218.613022 84.272034 218.776138 84.272034 L 218.776138 84.272034 C 218.930669 84.272034 219.029399 84.33213 219.072327 84.452324 L 219.072327 84.452324 C 219.192515 84.735634 219.304123 84.984604 219.40715 85.199234 C 219.501592 85.405279 219.664708 85.662837 219.8965 85.971909 C 220.128301 86.280975 220.372981 86.534238 220.630539 86.731697 C 220.896683 86.929156 221.235799 87.100861 221.647888 87.246811 C 222.068563 87.392756 222.52358 87.465729 223.012939 87.465729 L 223.012939 87.465729 C 223.914388 87.465729 224.639837 87.225344 225.189285 86.744576 C 225.738744 86.272387 226.013474 85.649958 226.013474 84.877289 L 226.013474 84.877289 C 226.013474 84.319249 225.8246 83.847061 225.446854 83.460724 C 225.077682 83.082977 224.652715 82.812546 224.171951 82.649429 C 223.691177 82.494893 223.081624 82.280263 222.343292 82.005539 C 221.60496 81.739395 220.999705 81.464666 220.527527 81.181351 L 220.527527 81.181351 C 219.437205 80.53746 218.892044 79.657476 218.892044 78.541397 L 218.892044 78.541397 C 218.892044 77.468246 219.278376 76.609726 220.051041 75.965836 C 220.823715 75.321945 221.828186 75 223.064453 75 L 223.064453 75 C 223.528056 75 224.073217 75.098729 224.699936 75.296188 C 225.335241 75.493647 225.657186 75.592377 225.665771 75.592377 L 225.665771 75.592377 C 225.700114 75.592377 225.764501 75.570915 225.858932 75.527992 C 225.96196 75.476479 226.034938 75.450722 226.077866 75.450722 L 226.077866 75.450722 C 226.232396 75.450722 226.32254 75.49794 226.348297 75.592377 L 226.348297 75.592377 C 226.605855 77.051865 226.734634 77.871755 226.734634 78.052048 L 226.734634 78.052048 C 226.734634 78.386866 226.648783 78.554276 226.477081 78.554276 L 226.477081 78.554276 C 226.365468 78.554276 226.279612 78.468424 226.219513 78.296722 L 226.219513 78.296722 C 226.082153 77.953313 225.944794 77.674294 225.807434 77.459663 C 225.661479 77.236448 225.558456 77.094793 225.498367 77.034698 C 225.438268 76.974599 225.283732 76.832942 225.03476 76.609726 L 225.03476 76.609726 C 224.382284 76.03452 223.596736 75.746918 222.678116 75.746918 L 222.678116 75.746918 C 221.931198 75.746918 221.304479 75.927205 220.797958 76.287781 C 220.291428 76.648361 220.038162 77.133425 220.038162 77.742973 L 220.038162 77.742973 C 220.038162 78.283841 220.188405 78.730273 220.488892 79.082268 C 220.780782 79.425677 221.171407 79.696111 221.660767 79.89357 C 222.158712 80.082443 222.678116 80.262733 223.218979 80.434441 C 223.759852 80.597562 224.33077 80.829364 224.931732 81.129845 C 225.54128 81.430326 226.043518 81.790904 226.438446 82.211578 L 226.438446 82.211578 C 226.91922 82.726695 227.159607 83.370585 227.159607 84.14325 L 227.159607 84.14325 C 227.159607 85.405279 226.756098 86.405457 225.949081 87.143784 C 225.15066 87.882116 224.154775 88.251282 222.961426 88.251282 L 222.961426 88.251282 C 222.128662 88.251282 221.463308 88.208354 220.965363 88.122498 C 220.458842 88.028061 219.939438 87.84348 219.40715 87.568756 L 219.40715 87.568756 C 219.252619 87.474314 219.068039 87.006419 218.853409 86.16507 C 218.638779 85.32372 218.531464 84.817195 218.531464 84.645493 Z M 237.577759 77.562683 L 237.577759 77.562683 C 237.577759 77.081914 237.637853 76.463781 237.758041 75.708282 L 237.758041 75.708282 C 237.758041 75.682526 237.762334 75.639598 237.77092 75.579498 C 237.779505 75.519404 237.788091 75.480771 237.796677 75.4636 C 237.796677 75.446429 237.800969 75.416382 237.809555 75.373459 C 237.818141 75.330531 237.826726 75.300481 237.835312 75.28331 C 237.843898 75.266139 237.856776 75.240384 237.873947 75.206047 C 237.899704 75.18029 237.921168 75.158826 237.938339 75.141655 C 237.964096 75.133069 237.994146 75.124484 238.028488 75.115898 C 238.071406 75.098727 238.114329 75.085851 238.157257 75.077271 C 238.208771 75.077271 238.264577 75.077271 238.324677 75.077271 L 238.324677 75.077271 C 238.51355 75.077271 239.020075 75.098732 239.844254 75.141655 C 240.668432 75.193164 241.857483 75.218918 243.411407 75.218918 L 243.411407 75.218918 C 246.055654 75.218918 247.905767 75.188871 248.961746 75.128777 L 248.961746 75.128777 C 248.970332 75.128777 248.991796 75.124484 249.026138 75.115898 C 249.051895 75.115898 249.073359 75.115898 249.09053 75.115898 L 249.09053 75.115898 C 249.219304 75.115898 249.309448 75.150238 249.360962 75.218918 C 249.40389 75.287603 249.425354 75.351995 249.425354 75.412094 L 249.425354 75.412094 C 249.425354 75.49794 249.442525 75.751203 249.476868 76.171883 C 249.519796 76.592557 249.54126 76.828649 249.54126 76.880157 L 249.54126 76.880157 C 249.54126 77.180644 249.519796 77.36952 249.476868 77.446785 C 249.442525 77.52405 249.36526 77.562683 249.245071 77.562683 L 249.245071 77.562683 C 249.15063 77.562683 249.086238 77.48971 249.051895 77.343765 L 249.051895 77.343765 C 248.957464 77.000356 248.871613 76.764262 248.794342 76.635483 C 248.725657 76.506704 248.571121 76.395096 248.330734 76.300659 C 248.090357 76.206223 247.721196 76.159004 247.223251 76.159004 L 247.223251 76.159004 L 244.879486 76.159004 C 244.596171 76.159004 244.420171 76.214808 244.351486 76.326416 C 244.282811 76.438024 244.248474 76.764262 244.248474 77.30513 L 244.248474 77.30513 L 244.248474 78.193695 C 244.248474 79.807719 244.239889 81.224281 244.222717 82.443382 C 244.205546 83.671069 244.19696 84.452324 244.19696 84.787148 L 244.19696 84.787148 C 244.19696 84.95885 244.192668 85.17348 244.184082 85.431038 C 244.184082 85.688591 244.184082 85.864588 244.184082 85.95903 L 244.184082 85.95903 C 244.184082 86.482727 244.26564 86.826136 244.428757 86.989258 L 244.428757 86.989258 C 244.591873 87.135203 244.767873 87.246808 244.956757 87.324074 C 245.14563 87.401339 245.308746 87.448558 245.446106 87.465729 C 245.592051 87.474314 245.712245 87.504364 245.806686 87.555878 C 245.901128 87.598806 245.948349 87.676071 245.948349 87.787674 L 245.948349 87.787674 C 245.948349 87.916453 245.918299 87.998014 245.8582 88.032356 C 245.798101 88.075279 245.6822 88.096741 245.510498 88.096741 L 245.510498 88.096741 C 245.373138 88.096741 245.055486 88.070986 244.557541 88.019478 C 244.068181 87.967969 243.720479 87.942215 243.514435 87.942215 L 243.514435 87.942215 C 243.36849 87.942215 243.076594 87.963676 242.638748 88.006599 C 242.200902 88.049527 241.878957 88.070992 241.672913 88.070992 L 241.672913 88.070992 C 241.226481 88.070992 241.003265 87.976552 241.003265 87.787674 L 241.003265 87.787674 C 241.003265 87.667486 241.041896 87.585927 241.119156 87.542999 C 241.187841 87.500071 241.329498 87.461436 241.544128 87.427094 C 241.750173 87.401342 241.883245 87.384173 241.943344 87.375587 L 241.943344 87.375587 C 242.355433 87.272565 242.582942 87.032178 242.62587 86.654427 L 242.62587 86.654427 C 242.746058 85.589862 242.806152 83.314781 242.806152 79.829185 L 242.806152 79.829185 L 242.793274 76.609726 C 242.793274 76.377925 242.728887 76.23627 242.600113 76.184761 C 242.462743 76.133247 242.072113 76.107491 241.428223 76.107491 L 241.428223 76.107491 C 240.586873 76.107491 239.951569 76.128955 239.522308 76.171883 C 239.093048 76.223391 238.844076 76.27061 238.775391 76.313538 C 238.69813 76.356466 238.612279 76.438024 238.517838 76.558212 L 238.517838 76.558212 C 238.41482 76.695577 238.328969 76.854406 238.260284 77.034698 C 238.1916 77.206401 238.148671 77.348056 238.1315 77.459663 C 238.114329 77.579857 238.079992 77.678586 238.028488 77.755852 C 237.968389 77.833117 237.886826 77.87175 237.783798 77.87175 L 237.783798 77.87175 C 237.646439 77.87175 237.577759 77.768728 237.577759 77.562683 Z M 259.276886 75.412094 L 259.276886 75.412094 C 259.276886 75.248973 259.444295 75.167412 259.779114 75.167412 L 259.779114 75.167412 C 259.822042 75.167412 259.899312 75.171705 260.010925 75.18029 C 260.122518 75.197461 260.208364 75.206047 260.268463 75.206047 L 260.268463 75.206047 C 260.302806 75.206047 260.865143 75.218923 261.955475 75.244675 C 263.054372 75.279017 263.955821 75.296188 264.659821 75.296188 L 264.659821 75.296188 C 264.917369 75.296188 265.539795 75.28331 266.5271 75.257553 C 267.52299 75.231796 268.102488 75.218918 268.265594 75.218918 L 268.265594 75.218918 C 268.497406 75.218918 268.613312 75.356283 268.613312 75.631012 L 268.613312 75.631012 C 268.613312 75.708282 268.574677 75.948669 268.497406 76.352173 C 268.428721 76.747091 268.394379 77.120547 268.394379 77.472542 L 268.394379 77.472542 C 268.394379 77.58415 268.364329 77.678586 268.30423 77.755852 C 268.24413 77.833117 268.179749 77.87175 268.111084 77.87175 L 268.111084 77.87175 C 267.930786 77.87175 267.840637 77.742973 267.840637 77.48542 L 267.840637 77.48542 C 267.840637 77.167768 267.73761 76.87587 267.531555 76.609726 C 267.325521 76.343582 267.072266 76.20622 266.77179 76.197639 L 266.77179 76.197639 C 265.690043 76.111788 264.861562 76.068863 264.286346 76.068863 L 264.286346 76.068863 L 263.809875 76.068863 C 263.191732 76.068863 262.831156 76.111788 262.728149 76.197639 C 262.625122 76.292076 262.56073 76.614021 262.534973 77.163475 L 262.534973 77.163475 C 262.483459 78.030581 262.457703 79.035049 262.457703 80.17688 L 262.457703 80.17688 C 262.457703 80.777847 262.573608 81.082624 262.80542 81.091209 L 262.80542 81.091209 L 263.256134 81.091209 L 264.01593 81.091209 L 264.569672 81.091209 C 265.290822 81.091209 265.771596 81.069748 266.011993 81.026825 C 266.25237 80.975311 266.471293 80.885165 266.668762 80.756386 L 266.668762 80.756386 C 266.891968 80.60185 267.029327 80.378634 267.080841 80.086739 L 267.080841 80.086739 C 267.115184 79.880694 267.196747 79.777672 267.325531 79.777672 L 267.325531 79.777672 C 267.437124 79.777672 267.505798 79.794843 267.531555 79.829185 C 267.557312 79.872108 267.57019 79.953667 267.57019 80.07386 L 267.57019 80.07386 C 267.57019 80.151126 267.544434 80.425852 267.49292 80.898041 C 267.441427 81.370229 267.41568 81.726517 267.41568 81.966904 L 267.41568 81.966904 C 267.41568 82.190119 267.424266 82.40475 267.441437 82.610794 C 267.467173 82.816839 267.480042 82.967079 267.480042 83.061516 L 267.480042 83.061516 C 267.480042 83.361997 267.437124 83.512238 267.351288 83.512238 L 267.351288 83.512238 C 267.17099 83.512238 267.037913 83.36629 266.952057 83.074394 L 266.952057 83.074394 C 266.780365 82.576454 266.630127 82.284556 266.501343 82.1987 L 266.501343 82.1987 C 266.25238 82.026998 265.677175 81.941147 264.775726 81.941147 L 264.775726 81.941147 C 264.415131 81.941147 264.12323 81.941147 263.900024 81.941147 C 263.676799 81.941147 263.530853 81.936854 263.462189 81.928268 C 263.393504 81.928268 263.337697 81.928268 263.294769 81.928268 C 263.260427 81.928268 263.221792 81.928268 263.178864 81.928268 L 263.178864 81.928268 C 262.689504 81.928268 262.444824 82.039876 262.444824 82.263092 L 262.444824 82.263092 C 262.444824 82.615087 262.440531 83.052933 262.431946 83.57663 C 262.414775 84.100327 262.406189 84.529587 262.406189 84.86441 L 262.406189 84.86441 L 262.406189 85.585571 C 262.406189 86.452677 262.552144 86.929156 262.844055 87.015007 L 262.844055 87.015007 C 263.144531 87.109444 263.402079 87.156662 263.616699 87.156662 L 263.616699 87.156662 C 264.518148 87.156662 265.307994 87.113736 265.986237 87.027885 C 266.664459 86.942034 267.175273 86.834719 267.518677 86.70594 C 267.862101 86.585747 268.149709 86.448385 268.3815 86.293854 C 268.604726 86.147903 268.750682 86.010539 268.819366 85.88176 C 268.888031 85.752981 268.952413 85.649958 269.012512 85.572693 C 269.081197 85.486837 269.149882 85.443909 269.218567 85.443909 L 269.218567 85.443909 C 269.364522 85.443909 269.4375 85.546933 269.4375 85.752983 L 269.4375 85.752983 C 269.4375 86.268094 269.179942 86.787501 268.664825 87.311203 C 268.149709 87.84348 267.698985 88.109619 267.312653 88.109619 L 267.312653 88.109619 C 266.445546 88.109619 265.47112 88.079572 264.389374 88.019478 C 263.299062 87.959384 262.620829 87.929337 262.354675 87.929337 L 262.354675 87.929337 C 262.019857 87.929337 261.599182 87.955091 261.092651 88.006599 C 260.586121 88.066694 260.191203 88.096741 259.907898 88.096741 L 259.907898 88.096741 C 259.65035 88.096741 259.521576 88.036647 259.521576 87.916458 L 259.521576 87.916458 C 259.521576 87.80485 259.521576 87.731875 259.521576 87.697533 C 259.521576 87.66319 259.538737 87.633143 259.573059 87.607391 C 259.615987 87.581635 259.658915 87.564463 259.701843 87.555878 C 259.736186 87.555878 259.813456 87.534414 259.933655 87.491486 C 260.045268 87.457143 260.165456 87.409925 260.29422 87.349831 L 260.29422 87.349831 C 260.586131 87.20388 260.775014 86.920568 260.86087 86.499893 C 260.955292 86.079219 261.002502 85.199234 261.002502 83.85994 L 261.002502 83.85994 L 261.002502 81.619202 C 261.002502 81.292964 261.011088 80.786435 261.028259 80.099617 C 261.045431 79.421384 261.054016 78.889102 261.054016 78.502769 L 261.054016 78.502769 C 261.054016 78.176531 261.041138 77.627078 261.015381 76.854408 L 261.015381 76.854408 C 261.006795 76.510999 260.856557 76.240565 260.564667 76.043106 C 260.281362 75.854228 259.946533 75.755498 259.560181 75.746918 L 259.560181 75.746918 C 259.371318 75.746918 259.276886 75.63531 259.276886 75.412094 Z M 279.173126 75.502235 L 279.173126 75.502235 C 279.173126 75.313357 279.310486 75.218918 279.585205 75.218918 L 279.585205 75.218918 C 279.628133 75.218918 279.696818 75.214628 279.79126 75.206047 C 279.885701 75.206047 280.040232 75.206047 280.254852 75.206047 L 280.254852 75.206047 C 280.314952 75.206047 280.482361 75.21463 280.75708 75.231796 C 281.023234 75.248967 281.2164 75.257553 281.336578 75.257553 L 281.336578 75.257553 C 281.602732 75.257553 282.113556 75.248967 282.869049 75.231796 C 283.624542 75.21463 284.105316 75.206047 284.311371 75.206047 L 284.311371 75.206047 C 285.444611 75.206047 286.419037 75.48936 287.23465 76.055984 C 288.050242 76.63119 288.458038 77.451075 288.458038 78.51564 L 288.458038 78.51564 C 288.458038 79.108022 288.350718 79.636014 288.136078 80.099617 C 287.921458 80.56322 287.659607 80.923798 287.350525 81.181351 C 287.041463 81.447495 286.698059 81.666417 286.320313 81.83812 C 285.942566 82.018412 285.607737 82.134313 285.315826 82.185822 C 285.023936 82.237335 284.762095 82.263092 284.530304 82.263092 L 284.530304 82.263092 C 284.143972 82.263092 283.753337 82.220167 283.358398 82.134315 C 282.963481 82.039879 282.766022 81.94544 282.766022 81.850998 L 282.766022 81.850998 C 282.766022 81.67071 282.843292 81.580566 282.997833 81.580566 L 282.997833 81.580566 C 283.057933 81.580566 283.182414 81.606323 283.371277 81.657837 C 283.551575 81.70076 283.731873 81.722221 283.91217 81.722221 L 283.91217 81.722221 C 284.195475 81.722221 284.491659 81.683589 284.80072 81.606323 C 285.109802 81.529053 285.436045 81.404566 285.779449 81.232864 C 286.114268 81.061162 286.388987 80.795021 286.603607 80.434441 C 286.818247 80.082446 286.925568 79.670354 286.925568 79.198166 L 286.925568 79.198166 C 286.925568 78.399745 286.603617 77.652832 285.959717 76.957428 C 285.307251 76.27061 284.410105 75.9272 283.26828 75.9272 L 283.26828 75.9272 C 282.899099 75.9272 282.645833 76.034515 282.508484 76.249146 C 282.3797 76.472361 282.315308 76.974597 282.315308 77.755852 L 282.315308 77.755852 C 282.315308 80.262733 282.306722 81.692172 282.289551 82.044167 C 282.280965 82.396161 282.276672 83.452143 282.276672 85.212112 L 282.276672 85.212112 C 282.276672 86.268092 282.521352 86.959203 283.010712 87.285446 L 283.010712 87.285446 C 283.148081 87.362712 283.315491 87.41422 283.512939 87.439972 C 283.710409 87.465729 283.873525 87.474314 284.002289 87.465729 C 284.139659 87.465729 284.259857 87.491486 284.362885 87.542999 C 284.465912 87.594513 284.517426 87.693242 284.517426 87.839188 L 284.517426 87.839188 C 284.517426 88.045232 284.375763 88.148254 284.092438 88.148254 C 283.817719 88.148254 283.332662 88.131083 282.637268 88.096741 C 281.941854 88.070989 281.56839 88.058113 281.516876 88.058113 L 281.516876 88.058113 C 281.396678 88.058113 281.160583 88.070989 280.808594 88.096741 C 280.456604 88.113912 280.134664 88.122498 279.842773 88.122498 L 279.842773 88.122498 C 279.473612 88.122498 279.289032 88.058111 279.289032 87.929337 L 279.289032 87.929337 C 279.289032 87.860652 279.297618 87.800555 279.314789 87.749046 C 279.33196 87.697533 279.349121 87.6589 279.366272 87.633148 C 279.383443 87.598806 279.422078 87.573049 279.482178 87.555878 C 279.542277 87.530121 279.585205 87.508657 279.610962 87.491486 C 279.636719 87.4829 279.692525 87.470022 279.778381 87.45285 C 279.872823 87.435679 279.937215 87.41851 279.971558 87.401344 L 279.971558 87.401344 C 279.997314 87.392759 280.031647 87.384173 280.074554 87.375587 C 280.126068 87.375587 280.160411 87.371295 280.177582 87.362709 C 280.194753 87.354123 280.224803 87.336955 280.267731 87.311203 C 280.310659 87.276861 280.345001 87.233932 280.370758 87.182419 C 280.387929 87.130905 280.417979 87.057933 280.460907 86.963501 C 280.503835 86.877645 280.551056 86.761744 280.60257 86.615799 L 280.60257 86.615799 C 280.688405 86.383998 280.752787 85.482549 280.795715 83.911453 C 280.847229 82.331772 280.872986 81.112671 280.872986 80.25415 L 280.872986 80.25415 C 280.872986 79.507238 280.868693 78.816129 280.860107 78.180824 C 280.851522 77.5541 280.847229 77.223569 280.847229 77.189232 L 280.847229 77.189232 C 280.847229 76.862994 280.748505 76.541046 280.551056 76.223389 C 280.345001 75.905741 280.00588 75.746918 279.533691 75.746918 L 279.533691 75.746918 C 279.293315 75.746918 279.173126 75.665357 279.173126 75.502235 Z M 311.213135 75.489357 L 311.213135 75.489357 C 311.213135 75.309064 311.380554 75.218918 311.715393 75.218918 L 311.715393 75.218918 C 311.835571 75.218918 312.114583 75.231796 312.552429 75.257553 C 312.981689 75.28331 313.3809 75.296188 313.750061 75.296188 L 313.750061 75.296188 C 313.981873 75.296188 314.200795 75.287603 314.40683 75.270432 C 314.62147 75.261846 314.934835 75.257553 315.346924 75.257553 L 315.346924 75.257553 C 315.664571 75.257553 315.823395 75.339114 315.823395 75.502235 L 315.823395 75.502235 C 315.823395 75.605258 315.548665 75.768377 314.999207 75.991592 L 314.999207 75.991592 C 314.612874 76.146123 314.419708 76.837232 314.419708 78.064919 L 314.419708 78.064919 C 314.419708 79.687523 314.411123 81.121254 314.393951 82.366112 C 314.376801 83.61097 314.368225 84.40081 314.368225 84.735634 L 314.368225 84.735634 C 314.368225 85.74869 314.518463 86.478434 314.818939 86.924866 L 314.818939 86.924866 C 315.085073 87.294027 315.37267 87.478607 315.681732 87.478607 L 315.681732 87.478607 C 315.707509 87.478607 315.767609 87.4829 315.86203 87.491486 C 315.956472 87.491486 316.016571 87.491486 316.042328 87.491486 L 316.042328 87.491486 C 316.128184 87.491486 316.21404 87.51295 316.299896 87.555878 C 316.385732 87.598806 316.42865 87.646024 316.42865 87.697533 L 316.42865 87.697533 C 316.42865 87.826312 316.394307 87.912165 316.325623 87.955093 C 316.256958 87.998016 316.141062 88.019478 315.977936 88.019478 L 315.977936 88.019478 C 315.61736 88.019478 315.282542 88.006599 314.97348 87.980843 C 314.664398 87.955091 314.428304 87.942215 314.265198 87.942215 L 314.265198 87.942215 C 313.921773 87.942215 313.552602 87.959384 313.157684 87.993721 C 312.762767 88.019478 312.470876 88.032356 312.282013 88.032356 L 312.282013 88.032356 C 311.74114 88.032356 311.470703 87.94221 311.470703 87.761917 L 311.470703 87.761917 C 311.470703 87.6589 311.52651 87.585927 311.638123 87.542999 C 311.749715 87.500071 311.878489 87.470022 312.024445 87.45285 C 312.1704 87.435679 312.320638 87.358414 312.475159 87.221054 C 312.6297 87.083689 312.73702 86.881938 312.797119 86.615799 L 312.797119 86.615799 C 312.822876 86.529943 312.861511 85.847417 312.913025 84.568222 C 312.973124 83.289027 313.003174 82.366117 313.003174 81.799492 L 313.003174 81.799492 L 313.003174 80.769264 C 313.003174 80.614728 313.003174 80.318537 313.003174 79.880692 C 313.011739 79.442846 313.016022 79.090853 313.016022 78.824715 L 313.016022 78.824715 L 313.016022 78.000534 C 313.016022 77.468246 312.990275 77.026108 312.938782 76.674118 L 312.938782 76.674118 C 312.904439 76.390803 312.745605 76.17188 312.46228 76.017349 C 312.178975 75.854228 311.887085 75.768374 311.586609 75.759789 L 311.586609 75.759789 C 311.337626 75.751208 311.213135 75.661064 311.213135 75.489357 Z M 326.13855 75.56662 L 326.13855 75.56662 C 326.13855 75.489354 326.181478 75.416382 326.267334 75.347702 C 326.35317 75.287603 326.46048 75.257553 326.589264 75.257553 L 326.589264 75.257553 C 326.666534 75.257553 326.786733 75.261846 326.94986 75.270432 C 327.121552 75.270432 327.228861 75.270432 327.27179 75.270432 L 327.27179 75.270432 C 327.452087 75.270432 327.623789 75.266139 327.786896 75.257553 C 327.941437 75.240382 328.065928 75.231796 328.16037 75.231796 L 328.16037 75.231796 C 328.271962 75.231796 328.396444 75.266139 328.533813 75.334824 C 328.679769 75.403503 328.765625 75.472183 328.791382 75.540863 L 328.791382 75.540863 C 328.817139 75.575205 328.881531 75.656766 328.984558 75.785545 C 329.096171 75.914324 329.242116 76.081736 329.422394 76.287781 C 329.602692 76.48524 329.765808 76.682699 329.911743 76.880157 L 329.911743 76.880157 C 331.542948 79.009293 333.727885 81.576274 336.466553 84.5811 L 336.466553 84.5811 C 336.543823 84.658366 336.633972 84.752803 336.737 84.86441 C 336.840027 84.976018 336.908712 85.057579 336.943054 85.109093 C 336.985982 85.160601 337.033193 85.212112 337.084686 85.263626 C 337.1362 85.306554 337.174835 85.340894 337.200592 85.366646 C 337.234934 85.383817 337.260691 85.392403 337.277863 85.392403 L 337.277863 85.392403 C 337.398061 85.392403 337.45816 85.018946 337.45816 84.272034 L 337.45816 84.272034 L 337.45816 82.160065 C 337.45816 81.353058 337.45816 80.674828 337.45816 80.125374 C 337.449575 79.567334 337.440989 79.168121 337.432404 78.927734 C 337.432404 78.678762 337.432404 78.524228 337.432404 78.464134 L 337.432404 78.464134 L 337.432404 78.335358 C 337.432404 77.931849 337.402354 77.584147 337.342255 77.292252 C 337.290741 77.000356 337.230642 76.77714 337.161957 76.622604 C 337.084686 76.468074 336.977376 76.335002 336.840027 76.223389 C 336.702657 76.120372 336.586751 76.051692 336.49231 76.017349 C 336.397888 75.991592 336.260529 75.961543 336.080231 75.9272 C 335.899933 75.884277 335.771149 75.85423 335.693878 75.837059 L 335.693878 75.837059 C 335.453501 75.759794 335.333313 75.656771 335.333313 75.527992 L 335.333313 75.527992 C 335.333313 75.347699 335.449219 75.257553 335.68103 75.257553 L 335.68103 75.257553 C 335.749695 75.257553 336.037292 75.261846 336.543823 75.270432 C 337.050354 75.270432 337.333669 75.270432 337.393768 75.270432 L 337.393768 75.270432 C 337.677073 75.270432 337.999013 75.266139 338.359589 75.257553 C 338.711599 75.240382 338.930522 75.231796 339.016357 75.231796 L 339.016357 75.231796 C 339.222412 75.231796 339.364075 75.25326 339.441345 75.296188 C 339.518616 75.339116 339.557251 75.420675 339.557251 75.540863 L 339.557251 75.540863 C 339.557251 75.592377 339.522909 75.639598 339.454224 75.682526 C 339.385539 75.725454 339.316854 75.759794 339.248169 75.785545 C 339.179484 75.819888 339.106517 75.845645 339.029266 75.862816 L 339.029266 75.862816 L 338.926239 75.901443 C 338.531321 76.116074 338.333862 76.794306 338.333862 77.936142 L 338.333862 77.936142 L 338.333862 78.631546 C 338.333862 79.54158 338.29952 81.121259 338.230835 83.370583 C 338.16215 85.628497 338.127808 87.023595 338.127808 87.555878 L 338.127808 87.555878 L 338.127808 87.916458 C 338.127808 88.191182 338.046244 88.328545 337.883118 88.328545 L 337.883118 88.328545 C 337.771505 88.328545 337.67278 88.285619 337.586945 88.199768 L 337.586945 88.199768 C 333.594818 83.572337 331.212423 80.820775 330.439758 79.945084 C 329.667074 79.077977 329.237813 78.644424 329.151978 78.644424 L 329.151978 78.644424 C 329.031779 78.644424 328.97168 79.052221 328.97168 79.867813 L 328.97168 79.867813 C 328.97168 81.009649 328.945923 82.237335 328.894409 83.550873 C 328.851481 84.872996 328.830017 85.594154 328.830017 85.714348 L 328.830017 85.714348 C 328.830017 86.255216 328.920166 86.667308 329.100464 86.950623 C 329.289327 87.233932 329.491079 87.392756 329.705719 87.427094 C 329.928925 87.461436 330.130676 87.500071 330.310974 87.542999 C 330.499837 87.585927 330.594269 87.667486 330.594269 87.787674 L 330.594269 87.787674 C 330.594269 87.916453 330.572805 87.998014 330.529877 88.032356 C 330.486949 88.075279 330.413981 88.096741 330.310974 88.096741 L 330.310974 88.096741 C 330.225118 88.096741 330.031952 88.088158 329.731476 88.070992 C 329.439565 88.062406 328.988831 88.058113 328.379272 88.058113 L 328.379272 88.058113 C 328.26768 88.058113 328.044474 88.062406 327.709656 88.070992 C 327.374817 88.088158 327.087209 88.096741 326.846832 88.096741 L 326.846832 88.096741 C 326.580678 88.096741 326.447601 87.998011 326.447601 87.800552 L 326.447601 87.800552 C 326.447601 87.69753 326.524872 87.62885 326.679413 87.594513 C 326.833954 87.568756 327.02712 87.474319 327.258911 87.311203 C 327.490723 87.156667 327.666718 86.864769 327.786896 86.435509 L 327.786896 86.435509 C 327.855581 86.160779 327.94573 85.040408 328.057343 83.074394 C 328.16037 81.116966 328.211884 79.764796 328.211884 79.017883 L 328.211884 79.017883 C 328.211884 77.987656 328.070221 77.214986 327.786896 76.699875 C 327.495005 76.193344 327.022827 75.905739 326.370361 75.837059 L 326.370361 75.837059 C 326.21582 75.819888 326.13855 75.729741 326.13855 75.56662 Z M 349.537537 77.562683 L 349.537537 77.562683 C 349.537537 77.081914 349.597636 76.463781 349.717834 75.708282 L 349.717834 75.708282 C 349.717834 75.682526 349.722127 75.639598 349.730713 75.579498 C 349.739299 75.519404 349.743591 75.480771 349.743591 75.4636 C 349.752177 75.446429 349.760763 75.416382 349.769348 75.373459 C 349.777934 75.330531 349.786519 75.300481 349.795105 75.28331 C 349.803691 75.266139 349.816569 75.240384 349.83374 75.206047 C 349.859497 75.18029 349.880961 75.158826 349.898132 75.141655 C 349.923889 75.133069 349.953939 75.124484 349.988281 75.115898 C 350.031209 75.098727 350.074137 75.085851 350.117065 75.077271 C 350.168579 75.077271 350.224375 75.077271 350.284454 75.077271 L 350.284454 75.077271 C 350.473338 75.077271 350.979869 75.098732 351.804047 75.141655 C 352.628225 75.193164 353.817281 75.218918 355.371216 75.218918 L 355.371216 75.218918 C 358.015462 75.218918 359.86557 75.188871 360.921539 75.128777 L 360.921539 75.128777 C 360.930125 75.128777 360.951589 75.124484 360.985931 75.115898 C 361.011688 75.115898 361.033152 75.115898 361.050323 75.115898 L 361.050323 75.115898 C 361.179108 75.115898 361.269257 75.150238 361.32077 75.218918 C 361.363698 75.287603 361.385162 75.351995 361.385162 75.412094 L 361.385162 75.412094 C 361.385162 75.49794 361.402334 75.751203 361.436676 76.171883 C 361.479584 76.592557 361.501038 76.828649 361.501038 76.880157 L 361.501038 76.880157 C 361.501038 77.180644 361.479584 77.36952 361.436676 77.446785 C 361.402334 77.52405 361.325063 77.562683 361.204865 77.562683 L 361.204865 77.562683 C 361.110423 77.562683 361.046031 77.48971 361.011688 77.343765 L 361.011688 77.343765 C 360.917247 77.000356 360.83139 76.764262 360.75412 76.635483 C 360.685455 76.506704 360.530924 76.395096 360.290527 76.300659 C 360.050151 76.206223 359.68099 76.159004 359.183044 76.159004 L 359.183044 76.159004 L 356.839294 76.159004 C 356.555969 76.159004 356.379964 76.214808 356.311279 76.326416 C 356.242594 76.438024 356.208252 76.764262 356.208252 77.30513 L 356.208252 77.30513 L 356.208252 78.193695 C 356.208252 79.807719 356.199677 81.224281 356.182526 82.443382 C 356.165334 83.671069 356.156738 84.452324 356.156738 84.787148 L 356.156738 84.787148 C 356.156738 84.95885 356.152456 85.17348 356.14389 85.431038 C 356.14389 85.688591 356.14389 85.864588 356.14389 85.95903 L 356.14389 85.95903 C 356.14389 86.482727 356.225444 86.826136 356.38855 86.989258 L 356.38855 86.989258 C 356.551676 87.135203 356.727671 87.246808 356.916534 87.324074 C 357.105418 87.401339 357.268545 87.448558 357.405914 87.465729 C 357.551849 87.474314 357.672038 87.504364 357.766479 87.555878 C 357.860921 87.598806 357.908142 87.676071 357.908142 87.787674 L 357.908142 87.787674 C 357.908142 87.916453 357.878092 87.998014 357.817993 88.032356 C 357.757894 88.075279 357.641998 88.096741 357.470306 88.096741 L 357.470306 88.096741 C 357.332937 88.096741 357.015279 88.070986 356.517334 88.019478 C 356.027974 87.967969 355.680267 87.942215 355.474213 87.942215 L 355.474213 87.942215 C 355.328278 87.942215 355.036387 87.963676 354.598541 88.006599 C 354.160695 88.049527 353.838745 88.070992 353.63269 88.070992 L 353.63269 88.070992 C 353.186259 88.070992 352.963043 87.976552 352.963043 87.787674 L 352.963043 87.787674 C 352.963043 87.667486 353.001678 87.585927 353.078949 87.542999 C 353.147634 87.500071 353.289296 87.461436 353.503937 87.427094 C 353.709971 87.401342 353.843038 87.384173 353.903137 87.375587 L 353.903137 87.375587 C 354.315226 87.272565 354.542735 87.032178 354.585663 86.654427 L 354.585663 86.654427 C 354.705861 85.589862 354.765961 83.314781 354.765961 79.829185 L 354.765961 79.829185 L 354.753082 76.609726 C 354.753082 76.377925 354.68869 76.23627 354.559906 76.184761 C 354.422536 76.133247 354.031911 76.107491 353.388031 76.107491 L 353.388031 76.107491 C 352.546682 76.107491 351.911377 76.128955 351.482117 76.171883 C 351.052856 76.223391 350.803884 76.27061 350.735199 76.313538 C 350.657928 76.356466 350.572072 76.438024 350.477631 76.558212 L 350.477631 76.558212 C 350.374603 76.695577 350.288747 76.854406 350.220062 77.034698 C 350.151398 77.206401 350.10848 77.348056 350.091309 77.459663 C 350.074137 77.579857 350.039795 77.678586 349.988281 77.755852 C 349.928182 77.833117 349.846619 77.87175 349.743591 77.87175 L 349.743591 77.87175 C 349.606222 77.87175 349.537537 77.768728 349.537537 77.562683 Z M 371.661652 81.902512 L 371.661652 81.902512 C 371.661652 79.884984 372.2712 78.23233 373.490295 76.94455 C 374.700826 75.648183 376.417877 75 378.641449 75 L 378.641449 75 C 379.671661 75 380.603149 75.150241 381.435913 75.450722 C 382.268697 75.751203 382.925466 76.120366 383.406219 76.558212 C 383.886993 76.996058 384.286204 77.498294 384.603851 78.064919 C 384.930105 78.631543 385.15332 79.15095 385.273499 79.623138 C 385.393697 80.103912 385.453796 80.546051 385.453796 80.949554 L 385.453796 80.949554 C 385.453796 82.58933 385.136149 83.967257 384.500854 85.083336 C 383.86554 86.208 383.028483 87.027888 381.989685 87.542999 C 380.950867 88.049525 379.748932 88.302788 378.383881 88.302788 L 378.383881 88.302788 C 376.95873 88.302788 375.726746 87.993721 374.687927 87.375587 C 373.649129 86.748868 372.88505 85.95903 372.395691 85.006073 C 371.906331 84.061696 371.661652 83.027176 371.661652 81.902512 Z M 373.245636 80.98819 L 373.245636 80.98819 C 373.245636 81.468959 373.314311 81.988363 373.45166 82.546402 C 373.580444 83.104441 373.795074 83.683945 374.095551 84.284912 C 374.396047 84.877289 374.760925 85.409571 375.190186 85.88176 C 375.619446 86.353948 376.160309 86.744576 376.812775 87.053642 C 377.465261 87.362709 378.182129 87.517242 378.963379 87.517242 L 378.963379 87.517242 C 379.375468 87.517242 379.804728 87.452853 380.25116 87.324074 C 380.706177 87.195295 381.156901 87.002129 381.603333 86.744576 C 382.041178 86.478432 382.436096 86.156484 382.788086 85.778732 C 383.140076 85.400986 383.423391 84.937386 383.638031 84.387932 C 383.861257 83.838478 383.97287 83.246099 383.97287 82.610794 L 383.97287 82.610794 C 383.97287 80.438736 383.401947 78.747447 382.260101 77.536926 C 381.118276 76.326416 379.706004 75.721161 378.023285 75.721161 L 378.023285 75.721161 C 376.701162 75.721161 375.576497 76.167592 374.649292 77.060455 C 373.713521 77.944733 373.245636 79.253977 373.245636 80.98819 Z M 408.47934 75.618134 L 408.47934 75.618134 C 408.47934 75.480774 408.548024 75.394923 408.685394 75.36058 C 408.822744 75.326238 409.127523 75.309067 409.599731 75.309067 L 409.599731 75.309067 C 409.668396 75.309067 409.831512 75.31336 410.089081 75.321945 C 410.346649 75.339116 410.53123 75.347702 410.642822 75.347702 L 410.642822 75.347702 C 410.771606 75.347702 411.016286 75.343409 411.376862 75.334824 C 411.728851 75.326238 411.994995 75.321945 412.175293 75.321945 L 412.175293 75.321945 C 412.776245 75.321945 413.076721 75.394918 413.076721 75.540863 L 413.076721 75.540863 C 413.076721 75.678233 412.95224 75.789843 412.703278 75.875694 C 412.445709 75.970131 412.316925 76.06886 412.316925 76.171883 L 412.316925 76.171883 C 412.316925 76.292076 412.35556 76.450902 412.432831 76.648361 C 412.510101 76.837234 412.587372 76.991768 412.664642 77.111961 C 412.750498 77.232155 412.870697 77.408152 413.025238 77.639954 C 413.179759 77.863169 413.269897 78.000534 413.295654 78.052048 L 413.295654 78.052048 C 413.699158 78.695938 414.119832 79.314072 414.557678 79.906448 C 415.00411 80.49883 415.257375 80.795021 415.317474 80.795021 L 415.317474 80.795021 C 415.386159 80.795021 415.476308 80.722046 415.587921 80.576096 C 415.690928 80.438736 415.841166 80.211227 416.038635 79.89357 C 416.227498 79.567332 416.386332 79.305484 416.515137 79.108025 L 416.515137 79.108025 C 416.558044 79.04793 416.648183 78.919151 416.785553 78.721687 C 416.922923 78.515643 417.017354 78.369695 417.068848 78.283844 C 417.120361 78.197993 417.201925 78.069214 417.313538 77.897507 C 417.425151 77.725805 417.502411 77.592735 417.545319 77.498299 C 417.596832 77.412448 417.652639 77.305133 417.712738 77.176353 C 417.781423 77.047574 417.828644 76.940259 417.854401 76.854408 C 417.880157 76.777138 417.893036 76.69987 417.893036 76.622604 L 417.893036 76.622604 C 417.893036 76.236272 417.686991 75.995885 417.274902 75.901443 L 417.274902 75.901443 C 417.231974 75.892858 417.163289 75.879982 417.068848 75.862816 C 416.982992 75.85423 416.91861 75.845645 416.875702 75.837059 C 416.832774 75.819888 416.78126 75.798424 416.721161 75.772667 C 416.661062 75.755501 416.618134 75.725454 416.592377 75.682526 C 416.56662 75.639598 416.553741 75.588086 416.553741 75.527992 L 416.553741 75.527992 C 416.553741 75.382042 416.721161 75.309067 417.056 75.309067 L 417.056 75.309067 C 417.116079 75.309067 417.227681 75.31336 417.390808 75.321945 C 417.553935 75.321945 417.691305 75.321945 417.802917 75.321945 L 417.802917 75.321945 C 418.077637 75.321945 418.408162 75.326238 418.794495 75.334824 C 419.189412 75.343409 419.494181 75.347702 419.708801 75.347702 L 419.708801 75.347702 C 420.301188 75.347702 420.597382 75.437846 420.597382 75.618134 L 420.597382 75.618134 C 420.597382 75.661062 420.558746 75.70399 420.481476 75.746918 C 420.412811 75.781255 420.314087 75.828471 420.185303 75.888565 C 420.047933 75.948664 419.927734 76.02164 419.824707 76.107491 L 419.824707 76.107491 C 419.326762 76.485242 418.601308 77.395276 417.648346 78.837593 C 416.695384 80.27991 416.150228 81.086919 416.012878 81.258621 L 416.012878 81.258621 C 415.824015 81.499008 415.703817 81.765149 415.652283 82.057045 C 415.609375 82.34036 415.587921 82.829717 415.587921 83.525116 L 415.587921 83.525116 C 415.587921 83.688238 415.587921 84.023061 415.587921 84.529587 C 415.596507 85.044703 415.6008 85.409576 415.6008 85.624207 L 415.6008 85.624207 L 415.6008 86.049171 C 415.6008 86.452675 415.669474 86.766037 415.806824 86.989258 C 415.944194 87.221054 416.072978 87.358416 416.193176 87.401344 C 416.313375 87.444267 416.433563 87.465729 416.553741 87.465729 L 416.553741 87.465729 C 416.579498 87.465729 416.639598 87.465729 416.734039 87.465729 C 416.828481 87.474314 416.88858 87.478607 416.914337 87.478607 L 416.914337 87.478607 C 417.000173 87.478607 417.068848 87.504364 417.120361 87.555878 C 417.163289 87.615972 417.184753 87.676069 417.184753 87.736168 L 417.184753 87.736168 C 417.184753 87.856361 417.154714 87.933627 417.094635 87.967964 C 417.034515 88.002307 416.922902 88.019478 416.759796 88.019478 L 416.759796 88.019478 C 416.699697 88.019478 416.437846 88.015185 415.974243 88.006599 C 415.51064 88.006599 415.171529 88.006599 414.956909 88.006599 L 414.956909 88.006599 C 414.536214 88.006599 414.149882 88.015185 413.797913 88.032356 C 413.445903 88.058113 413.171173 88.070992 412.973724 88.070992 L 412.973724 88.070992 C 412.6303 88.070992 412.458588 88.006602 412.458588 87.877823 L 412.458588 87.877823 C 412.458588 87.766215 412.49293 87.688947 412.561615 87.646019 C 412.6303 87.603096 412.741903 87.577342 412.896423 87.568756 C 413.050964 87.56017 413.16687 87.542999 413.244141 87.517242 L 413.244141 87.517242 C 413.742086 87.362712 413.991058 86.993548 413.991058 86.409752 L 413.991058 86.409752 C 413.991058 86.341072 413.995351 86.225171 414.003937 86.06205 C 414.012522 85.898928 414.016815 85.555519 414.016815 85.031822 C 414.025401 84.49954 414.029694 83.739749 414.029694 82.752449 L 414.029694 82.752449 C 414.029694 82.563576 414.016815 82.400457 413.991058 82.263092 C 413.956716 82.125727 413.918081 81.988363 413.875153 81.850998 C 413.832225 81.722224 413.729207 81.529058 413.566101 81.2715 C 413.41156 81.022527 413.252736 80.78214 413.08963 80.550339 C 412.935089 80.309952 412.668935 79.915034 412.291168 79.365585 C 411.913442 78.816127 411.548574 78.275256 411.196564 77.742973 L 411.196564 77.742973 C 410.827403 77.176348 410.492584 76.747088 410.192108 76.455193 C 409.891612 76.163297 409.65981 75.9873 409.496704 75.9272 C 409.333577 75.875692 409.144694 75.849937 408.930054 75.849937 L 408.930054 75.849937 C 408.629578 75.849937 408.47934 75.772669 408.47934 75.618134 Z M 430.242859 81.902512 L 430.242859 81.902512 C 430.242859 79.884984 430.848124 78.23233 432.058655 76.94455 C 433.277751 75.648183 434.999084 75 437.222656 75 L 437.222656 75 C 438.252889 75 439.184387 75.150241 440.017151 75.450722 C 440.841329 75.751203 441.493805 76.120366 441.974579 76.558212 C 442.455332 76.996058 442.858836 77.498294 443.185089 78.064919 C 443.511322 78.631543 443.734538 79.15095 443.854736 79.623138 C 443.974935 80.103912 444.035034 80.546051 444.035034 80.949554 L 444.035034 80.949554 C 444.035034 82.58933 443.717377 83.967257 443.082062 85.083336 C 442.438161 86.208 441.596812 87.027888 440.558014 87.542999 C 439.519196 88.049525 438.321554 88.302788 436.965088 88.302788 L 436.965088 88.302788 C 435.531352 88.302788 434.295085 87.993721 433.256287 87.375587 C 432.217468 86.748868 431.453379 85.95903 430.96402 85.006073 C 430.483246 84.061696 430.242859 83.027176 430.242859 81.902512 Z M 431.826843 80.98819 L 431.826843 80.98819 C 431.826843 81.468959 431.891235 81.988363 432.02002 82.546402 C 432.157389 83.104441 432.376312 83.683945 432.676788 84.284912 C 432.977264 84.877289 433.33784 85.409571 433.758514 85.88176 C 434.187775 86.353948 434.728648 86.744576 435.381134 87.053642 C 436.042185 87.362709 436.763336 87.517242 437.544586 87.517242 L 437.544586 87.517242 C 437.94809 87.517242 438.37735 87.452853 438.832367 87.324074 C 439.278798 87.195295 439.72524 87.002129 440.171692 86.744576 C 440.618123 86.478432 441.017324 86.156484 441.369293 85.778732 C 441.712718 85.400986 441.996033 84.937386 442.219238 84.387932 C 442.442464 83.838478 442.554077 83.246099 442.554077 82.610794 L 442.554077 82.610794 C 442.554077 80.438736 441.983164 78.747447 440.841339 77.536926 C 439.699493 76.326416 438.287221 75.721161 436.604523 75.721161 L 436.604523 75.721161 C 435.282399 75.721161 434.153442 76.167592 433.217651 77.060455 C 432.290446 77.944733 431.826843 79.253977 431.826843 80.98819 Z M 454.195618 75.450722 L 454.195618 75.450722 C 454.195618 75.390628 454.204203 75.347702 454.221375 75.321945 C 454.22996 75.304774 454.264303 75.28331 454.324402 75.257553 C 454.384501 75.231796 454.483236 75.218918 454.620605 75.218918 C 454.749369 75.218918 455.024089 75.231796 455.444763 75.257553 C 455.865438 75.28331 456.268951 75.296188 456.655304 75.296188 L 456.655304 75.296188 C 456.895681 75.296188 457.114594 75.287603 457.312042 75.270432 C 457.509511 75.261846 457.852926 75.257553 458.342285 75.257553 L 458.342285 75.257553 C 458.599854 75.257553 458.728638 75.339114 458.728638 75.502235 L 458.728638 75.502235 C 458.728638 75.613843 458.68571 75.682526 458.599854 75.708282 C 458.513977 75.734039 458.406657 75.751208 458.277893 75.759789 C 458.157694 75.768374 458.033213 75.8113 457.904449 75.888565 C 457.775665 75.95725 457.672638 76.133247 457.595367 76.416557 C 457.509511 76.699872 457.466583 77.081914 457.466583 77.562683 L 457.466583 77.562683 L 457.466583 78.064919 C 457.466583 78.631543 457.46229 79.344116 457.453705 80.202637 C 457.44514 81.061157 457.440857 81.649246 457.440857 81.966904 L 457.440857 81.966904 C 457.440857 82.336065 457.44514 82.615084 457.453705 82.803963 C 457.46229 83.001422 457.479462 83.280441 457.505219 83.641022 C 457.52239 84.010183 457.552439 84.302078 457.595367 84.516708 C 457.638295 84.722753 457.70698 84.980311 457.801422 85.289383 C 457.904429 85.59845 458.024618 85.843127 458.161987 86.023415 C 458.299357 86.203707 458.471059 86.401169 458.677094 86.615799 C 458.891734 86.830429 459.136414 86.993546 459.411133 87.105148 C 459.685872 87.225347 460.012115 87.324079 460.389862 87.401344 C 460.759023 87.47861 461.171112 87.517242 461.626129 87.517242 L 461.626129 87.517242 C 462.012461 87.517242 462.312948 87.508657 462.527588 87.491486 C 462.742208 87.4829 463.038391 87.444267 463.416138 87.375587 C 463.80247 87.315493 464.102956 87.221057 464.317596 87.092278 C 464.540802 86.963498 464.794067 86.77033 465.077393 86.512772 C 465.360697 86.255213 465.57961 85.941854 465.734131 85.572693 C 465.897257 85.194946 466.030334 84.718465 466.133362 84.14325 C 466.244975 83.568044 466.300781 82.911275 466.300781 82.172943 L 466.300781 82.172943 C 466.300781 80.962433 466.296488 80.039523 466.287903 79.404213 C 466.279317 78.768908 466.275024 78.421209 466.275024 78.361115 L 466.275024 78.361115 C 466.275024 77.940435 466.266439 77.609904 466.249268 77.369522 C 466.232096 77.129135 466.171997 76.862991 466.06897 76.571091 C 465.965942 76.279195 465.819997 76.068858 465.631134 75.940079 L 465.631134 75.940079 C 465.510935 75.854228 465.356405 75.798424 465.167542 75.772667 C 464.970072 75.73833 464.811239 75.712575 464.69104 75.695404 C 464.570841 75.678233 464.510742 75.626719 464.510742 75.540863 L 464.510742 75.540863 C 464.510742 75.35199 464.630941 75.257553 464.871338 75.257553 L 464.871338 75.257553 C 464.948608 75.257553 465.184703 75.261846 465.57962 75.270432 C 465.974538 75.287603 466.202047 75.296188 466.262146 75.296188 L 466.262146 75.296188 C 466.554036 75.296188 466.858816 75.287603 467.176483 75.270432 C 467.502716 75.244675 467.708761 75.231796 467.794617 75.231796 L 467.794617 75.231796 C 468.043579 75.231796 468.16806 75.313357 468.16806 75.476479 L 468.16806 75.476479 C 468.16806 75.570915 468.039286 75.691109 467.781738 75.837059 C 467.52417 75.991595 467.365336 76.128957 467.305237 76.249146 L 467.305237 76.249146 C 467.176473 76.498118 467.112091 76.893038 467.112091 77.433907 L 467.112091 77.433907 C 467.112091 77.519758 467.112091 77.691462 467.112091 77.94902 C 467.120656 78.206579 467.124939 78.43838 467.124939 78.644424 L 467.124939 78.644424 C 467.124939 80.953847 467.030507 82.722402 466.841644 83.950089 C 466.644175 85.169184 466.352275 86.062047 465.965942 86.628677 C 465.571025 87.186712 464.982941 87.633141 464.201691 87.967964 L 464.201691 87.967964 C 463.566396 88.234108 462.707876 88.36718 461.626129 88.36718 L 461.626129 88.36718 C 459.617177 88.36718 458.192027 87.980845 457.350677 87.208176 L 457.350677 87.208176 C 456.689626 86.598628 456.28183 85.860301 456.127289 84.993195 C 455.972748 84.134669 455.895477 82.653717 455.895477 80.550339 L 455.895477 80.550339 L 455.895477 80.25415 C 455.895477 79.781962 455.89978 79.262558 455.908386 78.695938 C 455.925537 78.129313 455.934113 77.781611 455.934113 77.652832 L 455.934113 77.652832 C 455.934113 76.99177 455.856852 76.536753 455.702332 76.287781 C 455.539205 76.047394 455.170044 75.884275 454.594849 75.798424 L 454.594849 75.798424 C 454.328695 75.764086 454.195618 75.648186 454.195618 75.450722 Z M 477.903717 75.476479 L 477.903717 75.476479 C 477.903717 75.27902 478.079702 75.18029 478.431671 75.18029 L 478.431671 75.18029 L 481.419342 75.18029 C 481.702647 75.18029 482.024597 75.171705 482.385193 75.154533 C 482.745768 75.137362 483.02478 75.128777 483.222229 75.128777 L 483.222229 75.128777 C 484.303975 75.128777 485.231181 75.403503 486.003845 75.952957 C 486.77651 76.493825 487.162842 77.227862 487.162842 78.155067 L 487.162842 78.155067 C 487.162842 78.773201 487.042653 79.309776 486.802277 79.764793 C 486.570485 80.228396 486.312927 80.56322 486.029602 80.769264 C 485.746297 80.975309 485.488739 81.151306 485.256927 81.297256 C 485.025116 81.451787 484.90921 81.55481 484.90921 81.606323 L 484.90921 81.606323 C 484.90921 81.743688 485.411458 82.52065 486.415955 83.93721 C 487.428996 85.345184 488.120107 86.250923 488.489288 86.654427 L 488.489288 86.654427 C 488.944285 87.212466 489.498027 87.491486 490.150513 87.491486 L 490.150513 87.491486 C 490.322205 87.491486 490.408051 87.564461 490.408051 87.710411 L 490.408051 87.710411 C 490.408051 87.890699 490.335083 88.010892 490.189148 88.070992 C 490.043193 88.131086 489.669739 88.161133 489.068787 88.161133 L 489.068787 88.161133 C 488.502157 88.161133 487.98704 88.023771 487.523438 87.749046 L 487.523438 87.749046 C 486.922465 87.397051 485.905111 86.049171 484.471375 83.705406 L 484.471375 83.705406 C 484.385539 83.576627 484.32545 83.48219 484.291107 83.422096 L 484.291107 83.422096 C 483.715892 82.486305 483.26946 82.01841 482.951813 82.01841 L 482.951813 82.01841 L 482.578339 82.01841 L 481.483734 82.01841 C 481.337779 82.01841 481.24763 82.078506 481.213287 82.1987 C 481.187531 82.318893 481.174652 82.683767 481.174652 83.29332 L 481.174652 83.29332 C 481.174652 83.868525 481.174652 84.345004 481.174652 84.722755 C 481.174652 85.091921 481.174652 85.328016 481.174652 85.431038 C 481.183238 85.53406 481.187531 85.619911 481.187531 85.688591 C 481.187531 85.748685 481.187531 85.800196 481.187531 85.843124 L 481.187531 85.843124 C 481.187531 86.332484 481.303436 86.710236 481.535248 86.976379 C 481.758474 87.251104 482.011729 87.409927 482.295013 87.45285 C 482.578339 87.495778 482.835897 87.542999 483.067688 87.594513 C 483.290914 87.646022 483.402527 87.731873 483.402527 87.852066 L 483.402527 87.852066 C 483.402527 88.049525 483.295207 88.148254 483.080566 88.148254 L 483.080566 88.148254 C 483.071981 88.148254 482.659892 88.126793 481.844299 88.08387 C 481.020121 88.040942 480.57369 88.019478 480.505005 88.019478 L 480.505005 88.019478 C 480.153015 88.019478 479.736633 88.032356 479.255859 88.058113 C 478.775085 88.083865 478.530406 88.096741 478.52182 88.096741 L 478.52182 88.096741 C 478.272858 88.096741 478.148376 87.998011 478.148376 87.800552 L 478.148376 87.800552 C 478.148376 87.671778 478.225647 87.577342 478.380188 87.517242 C 478.534709 87.465729 478.706411 87.427096 478.895294 87.401344 C 479.092763 87.384173 479.268758 87.255394 479.423279 87.015007 C 479.57782 86.77462 479.65509 86.431211 479.65509 85.984779 L 479.65509 85.984779 C 479.65509 85.667127 479.659383 84.825775 479.667969 83.460724 C 479.676534 82.087092 479.680817 81.035405 479.680817 80.305664 L 479.680817 80.305664 C 479.680817 79.558746 479.676534 78.876221 479.667969 78.258087 C 479.659383 77.639954 479.65509 77.30513 479.65509 77.253616 L 479.65509 77.253616 C 479.65509 76.807185 479.564941 76.468068 479.384644 76.236267 C 479.204346 76.004466 479.002594 75.871396 478.779388 75.837059 C 478.556183 75.811302 478.354431 75.772669 478.174133 75.721161 C 477.993856 75.678233 477.903717 75.596672 477.903717 75.476479 Z M 481.174652 77.846001 L 481.174652 78.361115 C 481.174652 79.597382 481.178945 80.361465 481.187531 80.653366 C 481.204702 80.945262 481.24763 81.116964 481.316315 81.168472 L 481.316315 81.168472 C 481.496613 81.280085 481.754171 81.335892 482.088989 81.335892 L 482.088989 81.335892 L 482.269287 81.335892 L 482.797272 81.335892 C 483.818899 81.335892 484.548645 81.099798 484.986511 80.627609 C 485.424357 80.155421 485.64328 79.554456 485.64328 78.824715 L 485.64328 78.824715 C 485.64328 78.077802 485.351379 77.399569 484.767578 76.790016 C 484.183777 76.171883 483.303792 75.862816 482.127625 75.862816 L 482.127625 75.862816 C 481.681193 75.862816 481.410756 75.983007 481.316315 76.223389 C 481.221873 76.45519 481.174652 76.996061 481.174652 77.846001 L 481.174652 77.846001 Z M 512.725342 75.502235 L 512.725342 75.502235 C 512.725342 75.321943 512.776835 75.231796 512.879822 75.231796 L 512.879822 75.231796 C 512.92275 75.231796 513.004313 75.236089 513.124512 75.244675 C 513.24471 75.25326 513.403544 75.257553 513.601013 75.257553 L 513.601013 75.257553 C 513.84141 75.257553 514.322184 75.25326 515.043335 75.244675 C 515.7559 75.236089 516.155111 75.231796 516.240967 75.231796 L 516.240967 75.231796 C 516.515706 75.231796 516.863403 75.223213 517.284058 75.206047 C 517.704753 75.188876 518.018107 75.18029 518.224121 75.18029 L 518.224121 75.18029 C 519.314453 75.18029 520.22878 75.442139 520.967102 75.965836 C 521.696838 76.489532 522.061707 77.232152 522.061707 78.193695 L 522.061707 78.193695 C 522.061707 78.54569 521.997335 78.87193 521.868591 79.172417 C 521.748393 79.481483 521.598145 79.730453 521.417847 79.919327 C 521.246134 80.116786 521.074422 80.284197 520.90271 80.421562 C 520.722453 80.558927 520.572225 80.666242 520.452026 80.743507 C 520.323242 80.820773 520.25885 80.867991 520.25885 80.885162 L 520.25885 80.885162 C 520.25885 80.919505 520.361877 80.962433 520.567932 81.013947 C 520.773946 81.065455 521.018616 81.155599 521.301941 81.284378 C 521.593852 81.413157 521.881449 81.584862 522.164734 81.799492 C 522.448059 82.014122 522.688456 82.336067 522.885925 82.765327 C 523.09198 83.194588 523.195007 83.696823 523.195007 84.272034 L 523.195007 84.272034 C 523.195007 84.787145 523.044759 85.340892 522.744263 85.933273 C 522.443766 86.517064 522.091777 86.946325 521.688293 87.221054 L 521.688293 87.221054 C 521.155986 87.598801 520.662333 87.847771 520.207336 87.967964 C 519.752299 88.096743 519.198547 88.161133 518.546082 88.161133 L 518.546082 88.161133 C 518.065328 88.161133 517.430033 88.126793 516.640198 88.058113 C 515.841736 87.998014 515.399577 87.967964 515.313721 87.967964 L 515.313721 87.967964 C 515.184977 87.967964 514.948893 87.980843 514.605469 88.006599 C 514.262044 88.023771 513.983032 88.032356 513.768433 88.032356 L 513.768433 88.032356 L 513.510864 88.032356 C 513.261882 88.032356 513.13739 87.94221 513.13739 87.761917 L 513.13739 87.761917 C 513.13739 87.598801 513.201782 87.517242 513.330566 87.517242 L 513.330566 87.517242 C 513.407837 87.517242 513.4894 87.51295 513.575256 87.504364 C 513.652527 87.495778 513.712626 87.491486 513.755554 87.491486 L 513.755554 87.491486 C 513.858582 87.491486 513.961609 87.452853 514.064636 87.375587 C 514.167623 87.298322 514.274923 87.126617 514.386536 86.860474 C 514.489563 86.585749 514.549662 86.238047 514.566833 85.817368 L 514.566833 85.817368 C 514.601176 85.036118 514.618347 83.160248 514.618347 80.189758 L 514.618347 80.189758 L 514.618347 77.12484 C 514.618347 77.047574 514.601176 76.948845 514.566833 76.828651 C 514.541077 76.717044 514.480977 76.566803 514.386536 76.37793 C 514.30068 76.197637 514.137573 76.043101 513.897217 75.914322 C 513.665405 75.785548 513.377787 75.721161 513.034363 75.721161 L 513.034363 75.721161 C 512.828349 75.721161 512.725342 75.648186 512.725342 75.502235 Z M 515.983398 86.358238 L 515.983398 86.358238 C 515.983398 87.079394 516.571493 87.439972 517.747681 87.439972 L 517.747681 87.439972 L 518.172607 87.439972 C 518.816528 87.439972 519.331645 87.409925 519.717957 87.349831 L 519.717957 87.349831 C 520.284607 87.255394 520.74821 86.963496 521.108765 86.474136 C 521.477946 85.976196 521.662537 85.383817 521.662537 84.696999 L 521.662537 84.696999 C 521.662537 84.113202 521.555216 83.606674 521.340576 83.177414 C 521.125936 82.748154 520.881246 82.426208 520.606506 82.211578 C 520.323222 81.996948 519.992696 81.829536 519.614929 81.709343 C 519.237203 81.589149 518.945313 81.516174 518.739258 81.490417 C 518.524618 81.464666 518.322856 81.45179 518.133972 81.45179 L 518.133972 81.45179 C 517.74766 81.45179 517.430013 81.45179 517.18103 81.45179 C 516.940674 81.443204 516.786153 81.438911 516.717468 81.438911 C 516.648783 81.438911 516.592977 81.434619 516.550049 81.426033 C 516.507121 81.426033 516.477071 81.426033 516.4599 81.426033 L 516.4599 81.426033 C 516.348287 81.426033 516.266724 81.438911 516.21521 81.464668 C 516.172282 81.499006 516.129354 81.614906 516.086426 81.81237 C 516.043498 82.009829 516.017741 82.293142 516.009155 82.662308 C 516.009155 83.040054 516.009155 83.598091 516.009155 84.336418 L 516.009155 84.336418 L 516.009155 84.490952 C 516.009155 84.928797 516.009155 85.289378 516.009155 85.572693 C 516.009155 85.847417 516.004862 86.040583 515.996277 86.152191 C 515.987691 86.263799 515.983398 86.332481 515.983398 86.358238 Z M 516.099304 77.66571 L 516.099304 78.193695 C 516.099304 78.794662 516.099304 79.262558 516.099304 79.597382 C 516.10789 79.932205 516.125061 80.189763 516.150818 80.370056 C 516.176575 80.550344 516.198039 80.666242 516.21521 80.717751 C 516.240967 80.769264 516.279602 80.795021 516.331116 80.795021 L 516.331116 80.795021 C 516.665914 80.829358 516.970683 80.846527 517.245422 80.846527 L 517.245422 80.846527 L 518.404419 80.846527 C 519.159953 80.846527 519.726583 80.649068 520.104309 80.25415 C 520.482035 79.850647 520.670898 79.339826 520.670898 78.721687 L 520.670898 78.721687 C 520.670898 78.04346 520.357544 77.390984 519.730835 76.764259 C 519.09554 76.128955 518.194092 75.811302 517.026489 75.811302 L 517.026489 75.811302 C 516.657349 75.811302 516.408386 75.92291 516.279602 76.146126 C 516.159403 76.369342 516.099304 76.87587 516.099304 77.66571 L 516.099304 77.66571 Z M 533.098022 75.412094 L 533.098022 75.412094 C 533.098022 75.248973 533.265442 75.167412 533.600281 75.167412 L 533.600281 75.167412 C 533.651794 75.167412 533.729065 75.171705 533.832092 75.18029 C 533.943705 75.197461 534.029541 75.206047 534.0896 75.206047 L 534.0896 75.206047 C 534.123942 75.206047 534.686279 75.218923 535.776611 75.244675 C 536.875529 75.279017 537.776978 75.296188 538.480957 75.296188 L 538.480957 75.296188 C 538.738525 75.296188 539.360962 75.28331 540.348267 75.257553 C 541.344157 75.231796 541.923645 75.218918 542.086731 75.218918 L 542.086731 75.218918 C 542.318542 75.218918 542.434448 75.356283 542.434448 75.631012 L 542.434448 75.631012 C 542.434448 75.708282 542.400106 75.948669 542.331421 76.352173 C 542.25415 76.747091 542.215515 77.120547 542.215515 77.472542 L 542.215515 77.472542 C 542.215515 77.58415 542.185465 77.678586 542.125366 77.755852 C 542.065267 77.833117 542.000895 77.87175 541.932251 77.87175 L 541.932251 77.87175 C 541.751953 77.87175 541.661804 77.742973 541.661804 77.48542 L 541.661804 77.48542 C 541.661804 77.167768 541.558777 76.87587 541.352722 76.609726 C 541.146667 76.343582 540.893392 76.20622 540.592896 76.197639 L 540.592896 76.197639 C 539.51119 76.111788 538.682719 76.068863 538.107483 76.068863 L 538.107483 76.068863 L 537.643921 76.068863 C 537.017171 76.068863 536.652303 76.111788 536.549316 76.197639 C 536.446289 76.292076 536.381897 76.614021 536.35614 77.163475 L 536.35614 77.163475 C 536.313212 78.030581 536.291748 79.035049 536.291748 80.17688 L 536.291748 80.17688 C 536.291748 80.777847 536.403341 81.082624 536.626526 81.091209 L 536.626526 81.091209 L 537.077271 81.091209 L 537.837097 81.091209 L 538.390808 81.091209 C 539.111959 81.091209 539.592733 81.069748 539.83313 81.026825 C 540.073527 80.975311 540.29244 80.885165 540.489868 80.756386 L 540.489868 80.756386 C 540.713094 80.60185 540.850464 80.378634 540.901978 80.086739 L 540.901978 80.086739 C 540.93632 79.880694 541.022176 79.777672 541.159546 79.777672 L 541.159546 79.777672 C 541.262573 79.777672 541.326965 79.794843 541.352722 79.829185 C 541.378479 79.872108 541.391357 79.953667 541.391357 80.07386 L 541.391357 80.07386 C 541.391357 80.151126 541.365601 80.425852 541.314087 80.898041 C 541.271159 81.370229 541.249695 81.726517 541.249695 81.966904 L 541.249695 81.966904 C 541.249695 82.190119 541.25828 82.40475 541.275452 82.610794 C 541.292623 82.816839 541.301208 82.967079 541.301208 83.061516 L 541.301208 83.061516 C 541.301208 83.361997 541.25828 83.512238 541.172424 83.512238 L 541.172424 83.512238 C 540.992126 83.512238 540.859049 83.36629 540.773193 83.074394 L 540.773193 83.074394 C 540.610067 82.576454 540.459839 82.284556 540.32251 82.1987 L 540.32251 82.1987 C 540.073527 82.026998 539.498311 81.941147 538.596863 81.941147 L 538.596863 81.941147 C 538.236267 81.941147 537.944377 81.941147 537.721191 81.941147 C 537.497965 81.941147 537.35201 81.936854 537.283325 81.928268 C 537.223226 81.928268 537.171712 81.928268 537.128784 81.928268 C 537.085856 81.928268 537.047221 81.928268 537.012878 81.928268 L 537.012878 81.928268 C 536.514954 81.928268 536.265991 82.039876 536.265991 82.263092 L 536.265991 82.263092 C 536.265991 82.615087 536.261698 83.052933 536.253113 83.57663 C 536.235942 84.100327 536.227356 84.529587 536.227356 84.86441 L 536.227356 84.86441 L 536.227356 85.585571 C 536.227356 86.452677 536.373291 86.929156 536.665161 87.015007 L 536.665161 87.015007 C 536.965658 87.109444 537.223226 87.156662 537.437866 87.156662 L 537.437866 87.156662 C 538.339315 87.156662 539.12915 87.113736 539.807373 87.027885 C 540.485596 86.942034 540.996419 86.834719 541.339844 86.70594 C 541.683228 86.585747 541.970825 86.448385 542.202637 86.293854 C 542.425863 86.147903 542.571818 86.010539 542.640503 85.88176 C 542.709188 85.752981 542.77358 85.649958 542.833679 85.572693 C 542.902364 85.486837 542.975342 85.443909 543.052612 85.443909 L 543.052612 85.443909 C 543.189982 85.443909 543.258667 85.546933 543.258667 85.752983 L 543.258667 85.752983 C 543.258667 86.268094 543.001099 86.787501 542.485962 87.311203 C 541.970825 87.84348 541.520101 88.109619 541.133789 88.109619 L 541.133789 88.109619 C 540.266683 88.109619 539.292257 88.079572 538.21051 88.019478 C 537.120219 87.959384 536.441996 87.929337 536.175842 87.929337 L 536.175842 87.929337 C 535.841003 87.929337 535.420329 87.955091 534.913818 88.006599 C 534.407267 88.066694 534.012349 88.096741 533.729065 88.096741 L 533.729065 88.096741 C 533.471497 88.096741 533.342712 88.036647 533.342712 87.916458 L 533.342712 87.916458 C 533.342712 87.80485 533.342712 87.731875 533.342712 87.697533 C 533.342712 87.66319 533.364176 87.633143 533.407104 87.607391 C 533.441447 87.581635 533.480082 87.564463 533.52301 87.555878 C 533.565938 87.555878 533.643209 87.534414 533.754822 87.491486 C 533.866435 87.457143 533.990906 87.409925 534.128235 87.349831 L 534.128235 87.349831 C 534.41156 87.20388 534.600444 86.920568 534.694885 86.499893 C 534.780741 86.079219 534.823669 85.199234 534.823669 83.85994 L 534.823669 83.85994 L 534.823669 81.619202 C 534.823669 81.292964 534.832255 80.786435 534.849426 80.099617 C 534.866597 79.421384 534.875183 78.889102 534.875183 78.502769 L 534.875183 78.502769 C 534.875183 78.176531 534.866597 77.627078 534.849426 76.854408 L 534.849426 76.854408 C 534.832255 76.510999 534.682007 76.240565 534.398682 76.043106 C 534.106812 75.854228 533.7677 75.755498 533.381348 75.746918 L 533.381348 75.746918 C 533.192464 75.746918 533.098022 75.63531 533.098022 75.412094 Z M 553.702576 84.645493 L 553.702576 84.645493 C 553.702576 84.39652 553.788411 84.272034 553.960083 84.272034 L 553.960083 84.272034 C 554.114624 84.272034 554.209066 84.33213 554.243408 84.452324 L 554.243408 84.452324 C 554.363607 84.735634 554.47522 84.984604 554.578247 85.199234 C 554.681274 85.405279 554.844401 85.662837 555.067627 85.971909 C 555.299398 86.280975 555.54836 86.534238 555.814514 86.731697 C 556.080627 86.929156 556.419739 87.100861 556.831848 87.246811 C 557.243958 87.392756 557.698975 87.465729 558.196899 87.465729 L 558.196899 87.465729 C 559.098348 87.465729 559.819499 87.225344 560.360352 86.744576 C 560.909831 86.272387 561.18457 85.649958 561.18457 84.877289 L 561.18457 84.877289 C 561.18457 84.319249 561 83.847061 560.630859 83.460724 C 560.253092 83.082977 559.823832 82.812546 559.343079 82.649429 C 558.862284 82.494893 558.252726 82.280263 557.514404 82.005539 C 556.776082 81.739395 556.170817 81.464666 555.698608 81.181351 L 555.698608 81.181351 C 554.608276 80.53746 554.06311 79.657476 554.06311 78.541397 L 554.06311 78.541397 C 554.06311 77.468246 554.449443 76.609726 555.222107 75.965836 C 556.003398 75.321945 557.012166 75 558.248413 75 L 558.248413 75 C 558.703451 75 559.244324 75.098729 559.871033 75.296188 C 560.506327 75.493647 560.828267 75.592377 560.836853 75.592377 L 560.836853 75.592377 C 560.879781 75.592377 560.948466 75.570915 561.042908 75.527992 C 561.137349 75.476479 561.210327 75.450722 561.261841 75.450722 L 561.261841 75.450722 C 561.416382 75.450722 561.50651 75.49794 561.532227 75.592377 L 561.532227 75.592377 C 561.781209 77.051865 561.905701 77.871755 561.905701 78.052048 L 561.905701 78.052048 C 561.905701 78.386866 561.819845 78.554276 561.648132 78.554276 L 561.648132 78.554276 C 561.545146 78.554276 561.463582 78.468424 561.403442 78.296722 L 561.403442 78.296722 C 561.257528 77.953313 561.115885 77.674294 560.978516 77.459663 C 560.841146 77.236448 560.742411 77.094793 560.682312 77.034698 C 560.622253 76.974599 560.46344 76.832942 560.205872 76.609726 L 560.205872 76.609726 C 559.561951 76.03452 558.776408 75.746918 557.849243 75.746918 L 557.849243 75.746918 C 557.102336 75.746918 556.475606 75.927205 555.969055 76.287781 C 555.47109 76.648361 555.222107 77.133425 555.222107 77.742973 L 555.222107 77.742973 C 555.222107 78.283841 555.368062 78.730273 555.659973 79.082268 C 555.951884 79.425677 556.346802 79.696111 556.844727 79.89357 C 557.334066 80.082443 557.849182 80.262733 558.390076 80.434441 C 558.930929 80.597562 559.506124 80.829364 560.115662 81.129845 C 560.716654 81.430326 561.218913 81.790904 561.622437 82.211578 L 561.622437 82.211578 C 562.10319 82.726695 562.343567 83.370585 562.343567 84.14325 L 562.343567 84.14325 C 562.343567 85.405279 561.940063 86.405457 561.133057 87.143784 C 560.32605 87.882116 559.325867 88.251282 558.132507 88.251282 L 558.132507 88.251282 C 557.308329 88.251282 556.642985 88.208354 556.136475 88.122498 C 555.629924 88.028061 555.114807 87.84348 554.591125 87.568756 L 554.591125 87.568756 C 554.427999 87.474314 554.239115 87.006419 554.024475 86.16507 C 553.809875 85.32372 553.702576 84.817195 553.702576 84.645493 Z M 572.761719 77.562683 L 572.761719 77.562683 C 572.761719 77.081914 572.821818 76.463781 572.942017 75.708282 L 572.942017 75.708282 C 572.942017 75.682526 572.942017 75.639598 572.942017 75.579498 C 572.950602 75.519404 572.959188 75.480771 572.967773 75.4636 C 572.976359 75.446429 572.980652 75.416382 572.980652 75.373459 C 572.989237 75.330531 572.997823 75.300481 573.006409 75.28331 C 573.02358 75.266139 573.040751 75.240384 573.057922 75.206047 C 573.075094 75.18029 573.096558 75.158826 573.122314 75.141655 C 573.148071 75.133069 573.178121 75.124484 573.212463 75.115898 C 573.246806 75.098727 573.289734 75.085851 573.341248 75.077271 C 573.384176 75.077271 573.435689 75.077271 573.495789 75.077271 L 573.495789 75.077271 C 573.693258 75.077271 574.199788 75.098732 575.015381 75.141655 C 575.839518 75.193164 577.028564 75.218918 578.58252 75.218918 L 578.58252 75.218918 C 581.226766 75.218918 583.076884 75.188871 584.132874 75.128777 L 584.132874 75.128777 C 584.150045 75.128777 584.171509 75.124484 584.197266 75.115898 C 584.231608 75.115898 584.253052 75.115898 584.261597 75.115898 L 584.261597 75.115898 C 584.390422 75.115898 584.480591 75.150238 584.532104 75.218918 C 584.583618 75.287603 584.609375 75.351995 584.609375 75.412094 L 584.609375 75.412094 C 584.609375 75.49794 584.626546 75.751203 584.660889 76.171883 C 584.69519 76.592557 584.712341 76.828649 584.712341 76.880157 L 584.712341 76.880157 C 584.712341 77.180644 584.69519 77.36952 584.660889 77.446785 C 584.626546 77.52405 584.549255 77.562683 584.429016 77.562683 L 584.429016 77.562683 C 584.326029 77.562683 584.257345 77.48971 584.222961 77.343765 L 584.222961 77.343765 C 584.12856 77.000356 584.047017 76.764262 583.978333 76.635483 C 583.901062 76.506704 583.742228 76.395096 583.501831 76.300659 C 583.261434 76.206223 582.896566 76.159004 582.407227 76.159004 L 582.407227 76.159004 L 580.063477 76.159004 C 579.771566 76.159004 579.591268 76.214808 579.522583 76.326416 C 579.462484 76.438024 579.432434 76.764262 579.432434 77.30513 L 579.432434 77.30513 L 579.432434 78.193695 C 579.432434 79.807719 579.423848 81.224281 579.406677 82.443382 C 579.389547 83.671069 579.380981 84.452324 579.380981 84.787148 L 579.380981 84.787148 C 579.380981 84.95885 579.376668 85.17348 579.368042 85.431038 C 579.359456 85.688591 579.355164 85.864588 579.355164 85.95903 L 579.355164 85.95903 C 579.355164 86.482727 579.44102 86.826136 579.612732 86.989258 L 579.612732 86.989258 C 579.767273 87.135203 579.938985 87.246808 580.127869 87.324074 C 580.325338 87.401339 580.492757 87.448558 580.630127 87.465729 C 580.767497 87.474314 580.883382 87.504364 580.977783 87.555878 C 581.072225 87.598806 581.119446 87.676071 581.119446 87.787674 L 581.119446 87.787674 C 581.119446 87.916453 581.089396 87.998014 581.029297 88.032356 C 580.969198 88.075279 580.857585 88.096741 580.694458 88.096741 L 580.694458 88.096741 C 580.548543 88.096741 580.230896 88.070986 579.741516 88.019478 C 579.243551 87.967969 578.891561 87.942215 578.685547 87.942215 L 578.685547 87.942215 C 578.548177 87.942215 578.256287 87.963676 577.809875 88.006599 C 577.372009 88.049527 577.054342 88.070992 576.856873 88.070992 L 576.856873 88.070992 C 576.410461 88.070992 576.187256 87.976552 576.187256 87.787674 L 576.187256 87.787674 C 576.187256 87.667486 576.221598 87.585927 576.290283 87.542999 C 576.367554 87.500071 576.509196 87.461436 576.71521 87.427094 C 576.92985 87.401342 577.06722 87.384173 577.127319 87.375587 L 577.127319 87.375587 C 577.530843 87.272565 577.758362 87.032178 577.809875 86.654427 L 577.809875 86.654427 C 577.930033 85.589862 577.990112 83.314781 577.990112 79.829185 L 577.990112 79.829185 L 577.964355 76.609726 C 577.964355 76.377925 577.899984 76.23627 577.77124 76.184761 C 577.642456 76.133247 577.251831 76.107491 576.599365 76.107491 L 576.599365 76.107491 C 575.757975 76.107491 575.12266 76.128955 574.69342 76.171883 C 574.272725 76.223391 574.023743 76.27061 573.946472 76.313538 C 573.877787 76.356466 573.796244 76.438024 573.701843 76.558212 L 573.701843 76.558212 C 573.59023 76.695577 573.500081 76.854406 573.431396 77.034698 C 573.371297 77.206401 573.328369 77.348056 573.302612 77.459663 C 573.2854 77.579857 573.251058 77.678586 573.199585 77.755852 C 573.148071 77.833117 573.066508 77.87175 572.954895 77.87175 L 572.954895 77.87175 C 572.826111 77.87175 572.761719 77.768728 572.761719 77.562683 Z M 608.008301 84.645493 L 608.008301 84.645493 C 608.008301 84.39652 608.089864 84.272034 608.252991 84.272034 L 608.252991 84.272034 C 608.416117 84.272034 608.514852 84.33213 608.549194 84.452324 L 608.549194 84.452324 C 608.669393 84.735634 608.781006 84.984604 608.884033 85.199234 C 608.987061 85.405279 609.150167 85.662837 609.373352 85.971909 C 609.605204 86.280975 609.854187 86.534238 610.1203 86.731697 C 610.377869 86.929156 610.717 87.100861 611.137695 87.246811 C 611.549764 87.392756 612.000468 87.465729 612.489807 87.465729 L 612.489807 87.465729 C 613.391256 87.465729 614.11672 87.225344 614.666199 86.744576 C 615.215637 86.272387 615.490356 85.649958 615.490356 84.877289 L 615.490356 84.877289 C 615.490356 84.319249 615.301493 83.847061 614.923767 83.460724 C 614.554586 83.082977 614.129598 82.812546 613.648804 82.649429 C 613.16805 82.494893 612.558512 82.280263 611.82019 82.005539 C 611.081868 81.739395 610.476603 81.464666 610.004395 81.181351 L 610.004395 81.181351 C 608.914063 80.53746 608.368896 79.657476 608.368896 78.541397 L 608.368896 78.541397 C 608.368896 77.468246 608.755249 76.609726 609.527954 75.965836 C 610.300618 75.321945 611.309367 75 612.554199 75 L 612.554199 75 C 613.009196 75 613.550069 75.098729 614.176819 75.296188 C 614.812113 75.493647 615.134054 75.592377 615.142639 75.592377 L 615.142639 75.592377 C 615.176982 75.592377 615.245667 75.570915 615.348694 75.527992 C 615.443136 75.476479 615.51182 75.450722 615.554749 75.450722 L 615.554749 75.450722 C 615.717875 75.450722 615.808024 75.49794 615.825195 75.592377 L 615.825195 75.592377 C 616.082764 77.051865 616.211548 77.871755 616.211548 78.052048 L 616.211548 78.052048 C 616.211548 78.386866 616.125692 78.554276 615.953979 78.554276 L 615.953979 78.554276 C 615.850952 78.554276 615.769389 78.468424 615.70929 78.296722 L 615.70929 78.296722 C 615.563334 77.953313 615.421672 77.674294 615.284302 77.459663 C 615.146973 77.236448 615.048238 77.094793 614.988098 77.034698 C 614.927999 76.974599 614.769185 76.832942 614.511658 76.609726 L 614.511658 76.609726 C 613.867778 76.03452 613.082214 75.746918 612.154968 75.746918 L 612.154968 75.746918 C 611.408061 75.746918 610.781352 75.927205 610.274841 76.287781 C 609.768331 76.648361 609.515076 77.133425 609.515076 77.742973 L 609.515076 77.742973 C 609.515076 78.283841 609.665304 78.730273 609.965759 79.082268 C 610.25767 79.425677 610.648315 79.696111 611.137695 79.89357 C 611.63562 80.082443 612.155009 80.262733 612.695862 80.434441 C 613.236755 80.597562 613.807678 80.829364 614.40863 81.129845 C 615.018168 81.430326 615.520406 81.790904 615.915344 82.211578 L 615.915344 82.211578 C 616.396098 82.726695 616.636475 83.370585 616.636475 84.14325 L 616.636475 84.14325 C 616.636475 85.405279 616.237264 86.405457 615.438843 87.143784 C 614.631836 87.882116 613.631653 88.251282 612.438293 88.251282 L 612.438293 88.251282 C 611.614115 88.251282 610.948771 88.208354 610.442261 88.122498 C 609.93575 88.028061 609.416341 87.84348 608.884033 87.568756 L 608.884033 87.568756 C 608.729492 87.474314 608.544902 87.006419 608.330261 86.16507 C 608.115621 85.32372 608.008301 84.817195 608.008301 84.645493 Z M 627.067505 75.412094 L 627.067505 75.412094 C 627.067505 75.248973 627.234924 75.167412 627.569763 75.167412 L 627.569763 75.167412 C 627.612691 75.167412 627.689962 75.171705 627.801575 75.18029 C 627.913147 75.197461 627.998983 75.206047 628.059082 75.206047 L 628.059082 75.206047 C 628.093465 75.206047 628.655802 75.218923 629.746094 75.244675 C 630.845011 75.279017 631.74646 75.296188 632.450439 75.296188 L 632.450439 75.296188 C 632.708008 75.296188 633.330444 75.28331 634.317749 75.257553 C 635.313599 75.231796 635.893087 75.218918 636.056213 75.218918 L 636.056213 75.218918 C 636.288025 75.218918 636.403931 75.356283 636.403931 75.631012 L 636.403931 75.631012 C 636.403931 75.708282 636.365316 75.948669 636.288086 76.352173 C 636.21936 76.747091 636.184998 77.120547 636.184998 77.472542 L 636.184998 77.472542 C 636.184998 77.58415 636.154948 77.678586 636.094849 77.755852 C 636.03479 77.833117 635.970398 77.87175 635.901672 77.87175 L 635.901672 77.87175 C 635.721415 77.87175 635.631287 77.742973 635.631287 77.48542 L 635.631287 77.48542 C 635.631287 77.167768 635.528259 76.87587 635.322205 76.609726 C 635.11615 76.343582 634.862895 76.20622 634.562439 76.197639 L 634.562439 76.197639 C 633.480693 76.111788 632.652201 76.068863 632.076965 76.068863 L 632.076965 76.068863 L 631.600525 76.068863 C 630.982361 76.068863 630.621785 76.111788 630.518799 76.197639 C 630.415771 76.292076 630.351379 76.614021 630.325623 77.163475 L 630.325623 77.163475 C 630.274109 78.030581 630.248352 79.035049 630.248352 80.17688 L 630.248352 80.17688 C 630.248352 80.777847 630.364258 81.082624 630.596069 81.091209 L 630.596069 81.091209 L 631.046753 81.091209 L 631.80658 81.091209 L 632.360291 81.091209 C 633.081441 81.091209 633.562215 81.069748 633.802612 81.026825 C 634.043009 80.975311 634.261943 80.885165 634.459412 80.756386 L 634.459412 80.756386 C 634.682638 80.60185 634.819987 80.378634 634.87146 80.086739 L 634.87146 80.086739 C 634.905843 79.880694 634.987406 79.777672 635.11615 79.777672 L 635.11615 79.777672 C 635.227763 79.777672 635.296448 79.794843 635.322205 79.829185 C 635.347961 79.872108 635.36084 79.953667 635.36084 80.07386 L 635.36084 80.07386 C 635.36084 80.151126 635.335083 80.425852 635.283569 80.898041 C 635.232056 81.370229 635.206299 81.726517 635.206299 81.966904 L 635.206299 81.966904 C 635.206299 82.190119 635.214884 82.40475 635.232056 82.610794 C 635.257813 82.816839 635.270691 82.967079 635.270691 83.061516 L 635.270691 83.061516 C 635.270691 83.361997 635.227763 83.512238 635.141907 83.512238 L 635.141907 83.512238 C 634.961609 83.512238 634.828532 83.36629 634.742676 83.074394 L 634.742676 83.074394 C 634.570964 82.576454 634.420736 82.284556 634.291992 82.1987 L 634.291992 82.1987 C 634.043009 82.026998 633.467794 81.941147 632.566345 81.941147 L 632.566345 81.941147 C 632.20579 81.941147 631.9139 81.941147 631.690674 81.941147 C 631.467448 81.941147 631.321493 81.936854 631.252808 81.928268 C 631.184123 81.928268 631.128316 81.928268 631.085388 81.928268 C 631.051046 81.928268 631.01241 81.928268 630.969482 81.928268 L 630.969482 81.928268 C 630.480143 81.928268 630.235474 82.039876 630.235474 82.263092 L 630.235474 82.263092 C 630.235474 82.615087 630.231181 83.052933 630.222595 83.57663 C 630.205424 84.100327 630.196838 84.529587 630.196838 84.86441 L 630.196838 84.86441 L 630.196838 85.585571 C 630.196838 86.452677 630.342794 86.929156 630.634705 87.015007 L 630.634705 87.015007 C 630.93516 87.109444 631.192708 87.156662 631.407349 87.156662 L 631.407349 87.156662 C 632.308797 87.156662 633.098633 87.113736 633.776855 87.027885 C 634.455119 86.942034 634.965942 86.834719 635.309326 86.70594 C 635.652751 86.585747 635.940369 86.448385 636.17218 86.293854 C 636.395365 86.147903 636.5413 86.010539 636.609985 85.88176 C 636.67867 85.752981 636.743062 85.649958 636.803162 85.572693 C 636.871847 85.486837 636.940531 85.443909 637.009216 85.443909 L 637.009216 85.443909 C 637.155131 85.443909 637.228088 85.546933 637.228088 85.752983 L 637.228088 85.752983 C 637.228088 86.268094 636.97054 86.787501 636.455444 87.311203 C 635.940348 87.84348 635.489624 88.109619 635.103271 88.109619 L 635.103271 88.109619 C 634.236165 88.109619 633.257446 88.079572 632.167114 88.019478 C 631.085368 87.959384 630.411438 87.929337 630.145325 87.929337 L 630.145325 87.929337 C 629.810486 87.929337 629.389811 87.955091 628.883301 88.006599 C 628.37679 88.066694 627.981873 88.096741 627.698547 88.096741 L 627.698547 88.096741 C 627.440979 88.096741 627.312195 88.036647 627.312195 87.916458 L 627.312195 87.916458 C 627.312195 87.80485 627.312195 87.731875 627.312195 87.697533 C 627.312195 87.66319 627.329366 87.633143 627.363708 87.607391 C 627.406637 87.581635 627.445272 87.564463 627.479614 87.555878 C 627.522542 87.555878 627.604106 87.534414 627.724304 87.491486 C 627.835876 87.457143 627.956055 87.409925 628.084839 87.349831 L 628.084839 87.349831 C 628.37675 87.20388 628.565633 86.920568 628.651489 86.499893 C 628.745931 86.079219 628.793152 85.199234 628.793152 83.85994 L 628.793152 83.85994 L 628.793152 81.619202 C 628.793152 81.292964 628.801737 80.786435 628.818909 80.099617 C 628.83608 79.421384 628.844666 78.889102 628.844666 78.502769 L 628.844666 78.502769 C 628.844666 78.176531 628.831787 77.627078 628.80603 76.854408 L 628.80603 76.854408 C 628.797445 76.510999 628.647196 76.240565 628.355286 76.043106 C 628.07196 75.854228 627.737142 75.755498 627.35083 75.746918 L 627.35083 75.746918 C 627.161947 75.746918 627.067505 75.63531 627.067505 75.412094 Z M 646.963745 75.489357 L 646.963745 75.489357 C 646.963745 75.274727 647.126872 75.167412 647.453125 75.167412 L 647.453125 75.167412 C 647.504639 75.167412 647.581889 75.171705 647.684875 75.18029 C 647.796488 75.197461 647.882345 75.206047 647.942444 75.206047 L 647.942444 75.206047 C 648.062683 75.206047 648.285909 75.21463 648.612122 75.231796 C 648.94696 75.257553 649.247437 75.270432 649.51355 75.270432 L 649.51355 75.270432 C 649.882731 75.270432 650.277669 75.257553 650.698364 75.231796 C 651.119019 75.21463 651.355103 75.206047 651.406616 75.206047 L 651.406616 75.206047 C 651.604085 75.206047 651.70282 75.266144 651.70282 75.386337 L 651.70282 75.386337 C 651.70282 75.549454 651.634135 75.656769 651.496765 75.708282 C 651.35081 75.768377 651.187683 75.807009 651.007385 75.824181 C 650.835673 75.841352 650.668254 75.974421 650.505127 76.223389 C 650.342 76.463776 650.251872 76.832942 650.234741 77.330887 L 650.234741 77.330887 C 650.208984 77.79449 650.178935 79.103734 650.144592 81.258621 C 650.101664 83.413508 650.0802 84.615438 650.0802 84.86441 L 650.0802 84.86441 L 650.0802 85.585571 C 650.0802 86.452677 650.226156 86.929156 650.518066 87.015007 L 650.518066 87.015007 C 650.818522 87.109444 651.07607 87.156662 651.29071 87.156662 L 651.29071 87.156662 C 652.192159 87.156662 652.981995 87.113736 653.660217 87.027885 C 654.338481 86.942034 654.849304 86.834719 655.192688 86.70594 C 655.536112 86.585747 655.82371 86.448385 656.055481 86.293854 C 656.278707 86.147903 656.424662 86.010539 656.493347 85.88176 C 656.562032 85.752981 656.626424 85.649958 656.686523 85.572693 C 656.755208 85.486837 656.828186 85.443909 656.905457 85.443909 L 656.905457 85.443909 C 657.042786 85.443909 657.11145 85.546933 657.11145 85.752983 L 657.11145 85.752983 C 657.11145 86.268094 656.853902 86.787501 656.338806 87.311203 C 655.82371 87.84348 655.372986 88.109619 654.986633 88.109619 L 654.986633 88.109619 C 654.119527 88.109619 653.145121 88.079572 652.063416 88.019478 C 650.973043 87.959384 650.2948 87.929337 650.028687 87.929337 L 650.028687 87.929337 C 649.693888 87.929337 649.307556 87.955091 648.86969 88.006599 C 648.431824 88.049527 648.066935 88.070992 647.775024 88.070992 L 647.775024 88.070992 C 647.431641 88.070992 647.259949 87.998016 647.259949 87.852066 L 647.259949 87.852066 C 647.259949 87.774801 647.289998 87.706118 647.350098 87.646019 C 647.418783 87.59451 647.483175 87.568756 647.543274 87.568756 L 647.543274 87.568756 C 647.723531 87.568756 647.899536 87.508659 648.071289 87.388466 L 648.071289 87.388466 C 648.285889 87.216759 648.440409 86.907689 648.534851 86.461258 C 648.629293 86.006241 648.676514 85.139135 648.676514 83.85994 L 648.676514 83.85994 L 648.676514 81.619202 C 648.676514 81.292964 648.685099 80.786435 648.702271 80.099617 C 648.719442 79.421384 648.728027 78.889102 648.728027 78.502769 L 648.728027 78.502769 C 648.728027 78.176531 648.719442 77.627078 648.702271 76.854408 L 648.702271 76.854408 C 648.685099 76.510999 648.534851 76.240565 648.251526 76.043106 C 647.959615 75.854228 647.620504 75.755498 647.234192 75.746918 L 647.234192 75.746918 C 647.113993 75.746918 647.041016 75.725454 647.015259 75.682526 C 646.980916 75.639598 646.963745 75.575208 646.963745 75.489357 Z M 666.847107 75.450722 L 666.847107 75.450722 C 666.847107 75.416384 666.855693 75.382044 666.872864 75.347702 C 666.898621 75.31336 666.950134 75.270432 667.027405 75.218918 C 667.104675 75.167409 667.20341 75.141655 667.323608 75.141655 L 667.323608 75.141655 L 667.812927 75.141655 C 668.096252 75.141655 668.559875 75.163119 669.203796 75.206047 C 669.847677 75.240384 670.684713 75.257553 671.714905 75.257553 L 671.714905 75.257553 C 672.573425 75.257553 673.333232 75.240384 673.994324 75.206047 C 674.655375 75.18029 675.26064 75.167412 675.81012 75.167412 L 675.81012 75.167412 C 676.016134 75.167412 676.119141 75.309067 676.119141 75.592377 L 676.119141 75.592377 C 676.119141 75.703985 676.106262 75.841349 676.080505 76.004471 C 676.054749 76.167587 676.020406 76.382217 675.977478 76.648361 C 675.925964 76.923091 675.887329 77.184939 675.861572 77.433907 L 675.861572 77.433907 C 675.844401 77.674294 675.754272 77.794487 675.591187 77.794487 L 675.591187 77.794487 C 675.42806 77.794487 675.346497 77.674294 675.346497 77.433907 L 675.346497 77.433907 C 675.346497 76.644066 675.067464 76.231977 674.509399 76.197639 L 674.509399 76.197639 C 672.697917 76.051689 671.616191 75.978714 671.264221 75.978714 L 671.264221 75.978714 C 670.723368 75.978714 670.392822 76.043104 670.272583 76.171883 C 670.14384 76.309247 670.075175 76.579681 670.066589 76.983185 L 670.066589 76.983185 C 670.066589 77.043279 670.066589 77.090497 670.066589 77.12484 L 670.066589 77.12484 C 670.023661 77.777316 670.002197 78.781787 670.002197 80.138252 L 670.002197 80.138252 C 670.002197 80.730634 670.11381 81.031118 670.337036 81.039703 L 670.337036 81.039703 C 670.397095 81.039703 670.474365 81.043994 670.568848 81.052574 C 670.671834 81.06116 670.744792 81.065453 670.78772 81.065453 L 670.78772 81.065453 C 670.86499 81.065453 670.989482 81.06116 671.161194 81.052574 C 671.332906 81.043994 671.465983 81.039703 671.560425 81.039703 L 671.560425 81.039703 L 672.114136 81.039703 C 672.835327 81.039703 673.311808 81.018239 673.543579 80.975311 C 673.783976 80.932383 673.998617 80.84653 674.1875 80.717751 L 674.1875 80.717751 C 674.299113 80.649071 674.384949 80.56322 674.445007 80.460197 C 674.505107 80.365761 674.548035 80.254153 674.573792 80.125374 C 674.591003 79.988009 674.621053 79.88928 674.66394 79.829185 C 674.698283 79.769086 674.766968 79.739037 674.869995 79.739037 C 674.981608 79.739037 675.050293 79.760501 675.07605 79.803429 C 675.101807 79.837766 675.114685 79.915034 675.114685 80.035233 L 675.114685 80.035233 C 675.114685 80.121084 675.084635 80.331421 675.024536 80.666245 C 674.973022 81.001063 674.947266 81.288666 674.947266 81.529053 L 674.947266 81.529053 C 674.947266 81.760854 674.96873 82.039874 675.011658 82.366112 C 675.054586 82.700935 675.07605 82.915568 675.07605 83.01001 L 675.07605 83.01001 C 675.07605 83.198883 675.054586 83.319074 675.011658 83.370583 C 674.96873 83.430677 674.904338 83.460724 674.818481 83.460724 L 674.818481 83.460724 C 674.612427 83.460724 674.487935 83.310486 674.445007 83.01001 L 674.445007 83.01001 C 674.445007 82.984253 674.436422 82.928446 674.41925 82.84259 C 674.410665 82.756739 674.4021 82.696645 674.393555 82.662308 C 674.393555 82.627965 674.380676 82.576452 674.354919 82.507767 C 674.329163 82.447673 674.303406 82.396164 674.277649 82.353241 C 674.251892 82.318899 674.221842 82.280263 674.1875 82.237335 C 674.153158 82.194407 674.105916 82.16436 674.045776 82.147194 L 674.045776 82.147194 C 673.874105 82.069923 673.573649 82.009827 673.144409 81.966904 C 672.715129 81.91539 672.431803 81.889633 672.294434 81.889633 L 672.294434 81.889633 L 670.723328 81.889633 C 670.233988 81.889633 669.989319 82.005534 669.989319 82.237335 L 669.989319 82.237335 C 669.989319 82.580744 669.985026 83.014297 669.97644 83.537994 C 669.959269 84.061696 669.950684 84.490957 669.950684 84.825775 L 669.950684 84.825775 C 669.950684 84.911631 669.946391 85.036118 669.937805 85.199234 C 669.937805 85.36235 669.937805 85.478251 669.937805 85.546936 L 669.937805 85.546936 C 669.937805 85.787323 669.959269 86.02771 670.002197 86.268097 C 670.053711 86.508484 670.195353 86.761747 670.427124 87.027885 C 670.667521 87.294024 670.985189 87.427094 671.380127 87.427094 L 671.380127 87.427094 C 671.740682 87.427094 671.920959 87.534411 671.920959 87.749046 L 671.920959 87.749046 C 671.920959 87.783384 671.908081 87.826309 671.882324 87.877823 C 671.856567 87.920751 671.800761 87.967969 671.714905 88.019478 C 671.620504 88.070986 671.500326 88.096741 671.35437 88.096741 L 671.35437 88.096741 C 671.165487 88.096741 670.865011 88.070986 670.452942 88.019478 C 670.032247 87.967969 669.753215 87.942215 669.615845 87.942215 L 669.615845 87.942215 C 669.27242 87.942215 668.894674 87.963676 668.482605 88.006599 C 668.070496 88.040942 667.718506 88.058113 667.426636 88.058113 L 667.426636 88.058113 C 667.186239 88.058113 667.06604 87.989431 667.06604 87.852066 L 667.06604 87.852066 C 667.06604 87.697535 667.091797 87.603099 667.143311 87.568756 C 667.20341 87.534414 667.435221 87.44427 667.838745 87.298325 L 667.838745 87.298325 C 668.156372 87.186712 668.349528 86.864764 668.418213 86.332481 C 668.495483 85.800199 668.538411 84.71417 668.546997 83.074394 L 668.546997 83.074394 C 668.546997 82.439089 668.546997 81.941147 668.546997 81.580566 L 668.546997 81.580566 C 668.546997 81.254328 668.555583 80.7478 668.572754 80.060982 C 668.589925 79.365583 668.598511 78.829007 668.598511 78.451256 L 668.598511 78.451256 L 668.598511 77.395279 C 668.598511 76.605433 668.315206 76.077441 667.748596 75.811302 L 667.748596 75.811302 C 667.671326 75.77696 667.572591 75.751205 667.452393 75.734039 C 667.332194 75.716868 667.229167 75.708282 667.143311 75.708282 C 667.06604 75.708282 666.997355 75.686818 666.937256 75.64389 C 666.877157 75.600962 666.847107 75.536573 666.847107 75.450722 Z"/>
    </g>
</svg>
